<svg width="18" height="16" viewBox="0 0 18 16" fill="none" xmlns="http://www.w3.org/2000/svg">
<path d="M17.4079 14.5659H1.1842V4.02643C1.1842 3.6994 0.919125 3.43433 0.592102 3.43433C0.265078 3.43433 0 3.69937 0 4.02643V15.158C0 15.485 0.265078 15.7501 0.592102 15.7501H17.4079C17.7349 15.7501 18 15.485 18 15.158C18 14.831 17.7349 14.5659 17.4079 14.5659Z" fill="#364DCD"/>
<path d="M13.0148 4.12754L12.2845 0.476209C12.2203 0.155478 11.9093 -0.0525413 11.588 0.0116189L7.93666 0.741884C7.61593 0.806045 7.40791 1.11788 7.47207 1.43861C7.53623 1.75952 7.84845 1.96697 8.16879 1.9032L11.2394 1.28899L11.8537 4.35964C11.9099 4.6411 12.157 4.83569 12.4335 4.83569C12.4718 4.83569 12.5111 4.83193 12.5504 4.82423C12.8709 4.7601 13.0789 4.44827 13.0148 4.12754Z" fill="#364DCD"/>
<path d="M10.7171 9.03931H7.69733C7.3703 9.03931 7.10522 9.30438 7.10522 9.63141V15.1577H8.28943V10.2235H10.125V15.1578H11.3092V9.63141C11.3092 9.30438 11.0441 9.03931 10.7171 9.03931Z" fill="#364DCD"/>
<path d="M15.8882 5.60522H12.8685C12.5414 5.60522 12.2764 5.8703 12.2764 6.19733V15.1578H13.4606V6.78943H15.2961V15.1578H16.4803V6.19733C16.4803 5.8703 16.2152 5.60522 15.8882 5.60522Z" fill="#364DCD"/>
<path d="M5.54589 11.4077H2.52618C2.19916 11.4077 1.93408 11.6728 1.93408 11.9998V15.1577H3.11829V12.592H4.95383V15.1577H6.13803V11.9998C6.138 11.6728 5.87295 11.4077 5.54589 11.4077Z" fill="#364DCD"/>
<path d="M11.1126 0.312988C7.86921 6.96729 0.603293 7.81122 0.530273 7.81913L0.592043 8.40789L0.653039 8.99683C0.977496 8.96329 8.63934 8.09011 12.177 0.831894L11.1126 0.312988Z" fill="#364DCD"/>
</svg>
