<svg width="19" height="17" viewBox="0 0 19 17" fill="none" xmlns="http://www.w3.org/2000/svg">
<path d="M17.3093 0.267059H14.9544C14.7321 0.267059 14.5519 0.447278 14.5519 0.669602C14.5519 0.891926 14.7321 1.07214 14.9544 1.07214H17.3093C17.7976 1.07214 18.1949 1.46941 18.1949 1.95774V6.55159C18.1949 7.07767 17.7669 7.5057 17.2408 7.5057H16.8263V4.53401C16.8263 3.60176 16.0678 2.84333 15.1356 2.84333H9.19809V1.61558C9.19809 1.39325 9.01788 1.21303 8.79555 1.21303C8.57323 1.21303 8.39301 1.39325 8.39301 1.61558V2.84333H1.69068C1.20235 2.84333 0.805085 2.44606 0.805085 1.95774C0.805085 1.46941 1.20235 1.07214 1.69068 1.07214H4.35438C4.57671 1.07214 4.75692 0.891926 4.75692 0.669602C4.75692 0.447278 4.57671 0.267059 4.35438 0.267059H1.69068C0.75843 0.267059 0 1.02549 0 1.95774C0 1.98008 0.000845332 2.00226 0.00169067 2.0244C0.000805077 2.03551 0 2.04662 0 2.05793V14.4366C0 15.3688 0.75843 16.1272 1.69068 16.1272L17.3093 16.1267C18.2416 16.1267 19 15.3683 19 14.4361V1.95774C19 1.02553 18.2416 0.267059 17.3093 0.267059ZM16.0212 14.4366C16.0212 14.9186 15.6339 15.3117 15.1542 15.3217H15.1356C15.1325 15.3217 15.1294 15.3221 15.1263 15.3221H1.69068C1.20235 15.3221 0.805085 14.9249 0.805085 14.4366V3.39719C1.06283 3.55631 1.36615 3.64842 1.69068 3.64842H15.1356C15.6239 3.64842 16.0212 4.04568 16.0212 4.53401V7.5057H12.3983C11.0221 7.5057 9.90254 8.62529 9.90254 10.0015C9.90254 11.3776 11.0221 12.4972 12.3983 12.4972H16.0212V14.4366ZM18.1949 14.4361C18.1949 14.9244 17.7976 15.3217 17.3093 15.3217H16.5753C16.7343 15.0641 16.8263 14.7609 16.8263 14.4366V12.4973H17.0678C17.4882 12.4973 17.8774 12.3619 18.1949 12.133V14.4361ZM18.1949 10.5651C18.1949 11.1865 17.6893 11.6922 17.0678 11.6922H12.3983C11.4661 11.6922 10.7076 10.9337 10.7076 10.0015C10.7076 9.06925 11.4661 8.31082 12.3983 8.31082H17.2408C17.5924 8.31082 17.9199 8.20676 18.1949 8.02844V10.5651Z" fill="#364DCD"/>
</svg>
