<svg width="24" height="17" viewBox="0 0 24 17" fill="none" xmlns="http://www.w3.org/2000/svg">
<rect x="0.65" y="0.65" width="22.7" height="15.7" rx="1.35" stroke="#364DCD" stroke-width="1.3"/>
<path d="M9.53597 9.81182C9.53597 9.57396 9.45829 9.38541 9.30294 9.24617C9.15096 9.10404 8.89092 8.9735 8.5228 8.85457C8.15468 8.73564 7.83722 8.61816 7.57042 8.50213C7.30361 8.3832 7.07396 8.24831 6.88146 8.09747C6.69233 7.94373 6.54374 7.76389 6.43566 7.55793C6.33097 7.35198 6.27862 7.10687 6.27862 6.82259C6.27862 6.33236 6.46099 5.93061 6.82573 5.61733C7.19048 5.30404 7.67511 5.1213 8.27964 5.06908V4.13794H9.09017V5.08214C9.68794 5.15466 10.1557 5.36931 10.4934 5.7261C10.8311 6.08 11 6.53977 11 7.10541H9.53597C9.53597 6.75732 9.45154 6.49771 9.28268 6.32656C9.11719 6.15252 8.89429 6.06549 8.61398 6.06549C8.33705 6.06549 8.12259 6.13366 7.97062 6.27C7.81864 6.40343 7.74265 6.58908 7.74265 6.82694C7.74265 7.0474 7.81695 7.22435 7.96555 7.35778C8.11415 7.49122 8.3894 7.62755 8.79129 7.76679C9.19656 7.90602 9.52921 8.03801 9.78926 8.16274C10.0493 8.28457 10.2688 8.42381 10.4478 8.58045C10.6268 8.73419 10.7636 8.91114 10.8582 9.11129C10.9527 9.30854 11 9.53915 11 9.80312C11 10.2962 10.821 10.6966 10.463 11.004C10.105 11.3115 9.61196 11.4928 8.98379 11.5479V12.4138H8.17832V11.5523C7.48598 11.4885 6.949 11.2782 6.56738 10.9214C6.18913 10.5617 6 10.0845 6 9.48984H7.46403C7.46403 9.83503 7.5586 10.1004 7.74772 10.2861C7.94022 10.4688 8.21547 10.5602 8.57346 10.5602C8.87065 10.5602 9.10537 10.4935 9.27761 10.3601C9.44985 10.2237 9.53597 10.041 9.53597 9.81182Z" fill="#364DCD"/>
</svg>
