<svg width="18" height="20" viewBox="0 0 18 20" fill="none" xmlns="http://www.w3.org/2000/svg">
<path d="M3.45818 13.2397C3.38552 13.167 3.28474 13.1252 3.18201 13.1252C3.07927 13.1252 2.97849 13.167 2.90583 13.2397C2.83318 13.3123 2.79138 13.4131 2.79138 13.5158C2.79138 13.6186 2.83318 13.7194 2.90583 13.792C2.97849 13.8647 3.07927 13.9065 3.18201 13.9065C3.28474 13.9065 3.38552 13.8647 3.45818 13.792C3.53083 13.7194 3.57263 13.6186 3.57263 13.5158C3.57263 13.4131 3.53083 13.3123 3.45818 13.2397Z" fill="#364DCD"/>
<path d="M11.4263 15.7033H5.23792C5.02217 15.7033 4.84729 15.8782 4.84729 16.094C4.84729 16.3097 5.02217 16.4846 5.23792 16.4846H11.4263C11.6421 16.4846 11.8169 16.3097 11.8169 16.094C11.8169 15.8782 11.6421 15.7033 11.4263 15.7033Z" fill="#364DCD"/>
<path d="M3.45818 15.8178C3.38552 15.7451 3.28474 15.7033 3.18201 15.7033C3.07927 15.7033 2.97849 15.7451 2.90583 15.8178C2.83318 15.8905 2.79138 15.9912 2.79138 16.094C2.79138 16.1967 2.83318 16.2975 2.90583 16.3701C2.97849 16.4428 3.07927 16.4846 3.18201 16.4846C3.28474 16.4846 3.38552 16.4428 3.45818 16.3701C3.53083 16.2975 3.57263 16.1967 3.57263 16.094C3.57263 15.9912 3.53083 15.8905 3.45818 15.8178Z" fill="#364DCD"/>
<path d="M17.4996 9.60941H14.6085V0.390656C14.6085 0.232687 14.5133 0.0902257 14.3674 0.0297569C14.2213 -0.0307509 14.0533 0.00276472 13.9417 0.114405L12.8351 1.22097L11.7285 0.114444C11.576 -0.0380947 11.3286 -0.0380947 11.1761 0.114444L10.0695 1.22101L8.96306 0.114444C8.81052 -0.0380947 8.56318 -0.0380947 8.4106 0.114444L7.30404 1.22101L6.19743 0.114444C6.0449 -0.0380947 5.79755 -0.0380947 5.64501 0.114444L4.53845 1.22101L3.43197 0.114444C3.27943 -0.0380947 3.03208 -0.0380947 2.87951 0.114444L1.77294 1.22101L0.66642 0.114444C0.514818 -0.0371572 0.269623 -0.0379384 0.116693 0.112296C0.0363809 0.191241 -0.00256446 0.296437 0.000130856 0.400929V17.9688C0.000130856 19.0888 0.911303 20 2.0313 20H15.8585C15.8586 20 15.8586 20 15.8587 20C15.8588 20 15.8589 20 15.859 20C16.979 20 17.8902 19.0888 17.8902 17.9688V10C17.8902 9.78426 17.7153 9.60941 17.4996 9.60941ZM2.0313 19.2188C1.34204 19.2188 0.781342 18.658 0.781342 17.9688V1.33421L1.49673 2.0496C1.64927 2.20214 1.89661 2.20214 2.04919 2.0496L3.15576 0.943039L4.26232 2.0496C4.41486 2.20214 4.6622 2.20214 4.81478 2.0496L5.92134 0.943039L7.02794 2.0496C7.18048 2.20214 7.42782 2.20214 7.58036 2.0496L8.68693 0.943039L9.79349 2.0496C9.94603 2.20214 10.1934 2.20214 10.346 2.0496L11.4525 0.943039L12.5591 2.0496C12.7117 2.20214 12.959 2.20214 13.1115 2.0496L13.8275 1.33366V10C13.8275 10.0036 13.8279 10.007 13.828 10.0106V17.9688C13.828 18.44 13.9897 18.8738 14.2599 19.2188H2.0313ZM17.109 17.9688C17.109 18.658 16.5482 19.2188 15.859 19.2188C15.1698 19.2188 14.609 18.658 14.609 17.9688V10.3906H17.109V17.9688Z" fill="#364DCD"/>
<path d="M7.30416 6.20521C6.91646 6.20521 6.60107 5.93513 6.60107 5.60322C6.60107 5.27126 6.9165 5.00118 7.30416 5.00118C7.69186 5.00118 8.00725 5.27126 8.00725 5.60322C8.00725 5.81896 8.18213 5.99384 8.39787 5.99384C8.61361 5.99384 8.7885 5.81896 8.7885 5.60322C8.7885 4.96646 8.32428 4.42919 7.69478 4.26896V4.00435C7.69478 3.78861 7.5199 3.61372 7.30416 3.61372C7.08842 3.61372 6.91353 3.78861 6.91353 4.00435V4.26896C6.284 4.42919 5.81982 4.9665 5.81982 5.60322C5.81982 6.36591 6.48572 6.98642 7.30416 6.98642C7.69186 6.98642 8.00725 7.2565 8.00725 7.58845C8.00725 7.9204 7.69186 8.19044 7.30416 8.19044C6.91646 8.19044 6.60107 7.92036 6.60107 7.58845C6.60107 7.37271 6.42619 7.19783 6.21045 7.19783C5.99471 7.19783 5.81982 7.37271 5.81982 7.58845C5.81982 8.22521 6.28404 8.76247 6.91353 8.92271V9.24146C6.91353 9.4572 7.08842 9.63208 7.30416 9.63208C7.5199 9.63208 7.69478 9.4572 7.69478 9.24146V8.92271C8.32432 8.76247 8.7885 8.22521 8.7885 7.58845C8.7885 6.82576 8.1226 6.20521 7.30416 6.20521Z" fill="#364DCD"/>
<path d="M11.2287 6.20539H10.4674C10.2517 6.20539 10.0768 6.38027 10.0768 6.59602C10.0768 6.81176 10.2517 6.98664 10.4674 6.98664H11.2287C11.4445 6.98664 11.6194 6.81176 11.6194 6.59602C11.6194 6.38027 11.4445 6.20539 11.2287 6.20539Z" fill="#364DCD"/>
<path d="M4.14109 6.20539H3.37976C3.16402 6.20539 2.98914 6.38027 2.98914 6.59602C2.98914 6.81176 3.16402 6.98664 3.37976 6.98664H4.14109C4.35683 6.98664 4.53171 6.81176 4.53171 6.59602C4.53171 6.38027 4.35683 6.20539 4.14109 6.20539Z" fill="#364DCD"/>
<path d="M11.4263 10.5471H5.23792C5.02217 10.5471 4.84729 10.722 4.84729 10.9377C4.84729 11.1535 5.02217 11.3283 5.23792 11.3283H11.4263C11.6421 11.3283 11.8169 11.1535 11.8169 10.9377C11.8169 10.722 11.6421 10.5471 11.4263 10.5471Z" fill="#364DCD"/>
<path d="M3.45818 10.6616C3.38552 10.5889 3.28474 10.5471 3.18201 10.5471C3.07927 10.5471 2.97849 10.5889 2.90583 10.6616C2.83318 10.7342 2.79138 10.835 2.79138 10.9377C2.79138 11.0405 2.83318 11.1412 2.90583 11.2139C2.97849 11.2865 3.07927 11.3283 3.18201 11.3283C3.28474 11.3283 3.38552 11.2865 3.45818 11.2139C3.53083 11.1412 3.57263 11.0405 3.57263 10.9377C3.57263 10.835 3.53083 10.7342 3.45818 10.6616Z" fill="#364DCD"/>
<path d="M11.4263 13.1252H5.23792C5.02217 13.1252 4.84729 13.3001 4.84729 13.5158C4.84729 13.7316 5.02217 13.9065 5.23792 13.9065H11.4263C11.6421 13.9065 11.8169 13.7316 11.8169 13.5158C11.8169 13.3001 11.6421 13.1252 11.4263 13.1252Z" fill="#364DCD"/>
</svg>
