<svg width="24" height="24" viewBox="0 0 24 24" fill="none" xmlns="http://www.w3.org/2000/svg">
<path d="M6.9375 10.5H5.8125V3.5C5.8125 3.224 5.5605 3 5.25 3C4.9395 3 4.6875 3.224 4.6875 3.5V10.5H3.5625C3.252 10.5 3 10.724 3 11V19C3 19.2765 3.252 19.5 3.5625 19.5H4.6875V20.5C4.6875 20.7765 4.9395 21 5.25 21C5.5605 21 5.8125 20.7765 5.8125 20.5V19.5H6.9375C7.248 19.5 7.5 19.2765 7.5 19V11C7.5 10.724 7.248 10.5 6.9375 10.5ZM6.375 18.5H4.125V11.5H6.375V18.5Z" fill="#364DCD"/>
<path d="M13.6875 6H12.5625V3.5C12.5625 3.224 12.3105 3 12 3C11.6895 3 11.4375 3.224 11.4375 3.5V6H10.3125C10.002 6 9.75 6.224 9.75 6.5V11C9.75 11.276 10.002 11.5 10.3125 11.5H11.4375V20.5C11.4375 20.7765 11.6895 21 12 21C12.3105 21 12.5625 20.7765 12.5625 20.5V11.5H13.6875C13.998 11.5 14.25 11.276 14.25 11V6.5C14.25 6.224 13.998 6 13.6875 6ZM13.125 10.5H10.875V7H13.125V10.5Z" fill="#364DCD"/>
<path d="M20.4375 12H19.3125V3.5C19.3125 3.224 19.0611 3 18.75 3C18.4389 3 18.1875 3.224 18.1875 3.5V12H17.0625C16.7514 12 16.5 12.224 16.5 12.5V17.5C16.5 17.7765 16.7514 18 17.0625 18H18.1875V20.5C18.1875 20.7765 18.4389 21 18.75 21C19.0611 21 19.3125 20.7765 19.3125 20.5V18H20.4375C20.7486 18 21 17.7765 21 17.5V12.5C21 12.224 20.7486 12 20.4375 12ZM19.875 17H17.625V13H19.875V17Z" fill="#364DCD"/>
</svg>
