<svg width="20" height="18" viewBox="0 0 20 18" fill="none" xmlns="http://www.w3.org/2000/svg">
<path d="M19.7875 7.12748L10.3072 0.186187C10.1244 0.0523584 9.87603 0.0523584 9.69329 0.186187L0.212901 7.12748C-0.0186615 7.29705 -0.068974 7.6222 0.100596 7.85376C0.270167 8.08533 0.595362 8.13556 0.826885 7.96607L10.0002 1.24951L19.1735 7.96603C19.266 8.0338 19.3735 8.06642 19.4801 8.06642C19.6401 8.06642 19.798 7.99279 19.8998 7.85373C20.0694 7.6222 20.0191 7.29705 19.7875 7.12748Z" fill="#364DCD"/>
<path d="M17.2755 8.08374C16.9885 8.08374 16.7558 8.3164 16.7558 8.60339V16.8748H12.5987V12.3598C12.5987 10.9269 11.433 9.76132 10.0003 9.76132C8.56753 9.76132 7.40183 10.927 7.40183 12.3598V16.8749H3.24468V8.60343C3.24468 8.31644 3.01198 8.08378 2.72503 8.08378C2.43808 8.08378 2.20538 8.31644 2.20538 8.60343V17.3946C2.20538 17.6815 2.43808 17.9142 2.72503 17.9142H7.92148C8.19476 17.9142 8.41839 17.7031 8.43909 17.435C8.44034 17.4229 8.44113 17.4096 8.44113 17.3946V12.3598C8.44113 11.5001 9.14054 10.8007 10.0003 10.8007C10.86 10.8007 11.5594 11.5001 11.5594 12.3598V17.3946C11.5594 17.4095 11.5602 17.4226 11.5614 17.4346C11.5819 17.7028 11.8056 17.9142 12.0791 17.9142H17.2755C17.5625 17.9142 17.7951 17.6815 17.7951 17.3946V8.60343C17.7951 8.3164 17.5625 8.08374 17.2755 8.08374Z" fill="#364DCD"/>
</svg>
