<svg width="18" height="18" viewBox="0 0 18 18" fill="none" xmlns="http://www.w3.org/2000/svg">
<path d="M14.4633 5.35903C13.7378 5.35903 13.0952 5.50573 12.6321 5.74953C12.1707 5.99249 11.8768 6.33862 11.8768 6.74005V15.669C11.8768 16.0704 12.1707 16.4166 12.6321 16.6595C13.0952 16.9033 13.7378 17.05 14.4633 17.05C15.1889 17.05 15.8315 16.9033 16.2946 16.6595C16.756 16.4166 17.0499 16.0704 17.0499 15.669V6.74005C17.0499 6.32506 16.7564 5.97878 16.2943 5.739C15.8311 5.49865 15.1885 5.35903 14.4633 5.35903ZM16.5841 15.669C16.5841 15.7542 16.5362 15.8513 16.4346 15.9519C16.3337 16.0519 16.1845 16.1502 15.9944 16.237C15.6145 16.4105 15.0791 16.5341 14.4633 16.5341C13.8476 16.5341 13.3122 16.4105 12.9323 16.237C12.7422 16.1502 12.593 16.0519 12.492 15.9519C12.3905 15.8513 12.3426 15.7542 12.3426 15.669V14.2222C12.8056 14.5789 13.563 14.7762 14.4633 14.7762C15.366 14.7762 16.1224 14.5533 16.5841 14.2179V15.669ZM16.5841 13.4229C16.5841 13.5081 16.5362 13.6052 16.4346 13.7058C16.3337 13.8058 16.1845 13.9041 15.9944 13.9909C15.6145 14.1644 15.0791 14.288 14.4633 14.288C13.8472 14.288 13.3117 14.1711 12.9319 14.0012C12.742 13.9161 12.593 13.8187 12.4923 13.7177C12.3912 13.6165 12.3426 13.5158 12.3426 13.4229V12.0038C12.8056 12.3605 13.563 12.5578 14.4633 12.5578C15.366 12.5578 16.1224 12.3349 16.5841 11.9995V13.4229ZM16.5841 11.2045C16.5841 11.2897 16.5362 11.3869 16.4346 11.4875C16.3337 11.5874 16.1845 11.6858 15.9944 11.7726C15.6145 11.946 15.0791 12.0696 14.4633 12.0696C13.8476 12.0696 13.3122 11.946 12.9323 11.7726C12.7422 11.6858 12.593 11.5874 12.492 11.4875C12.3905 11.3869 12.3426 11.2897 12.3426 11.2045V9.78541C12.8056 10.1422 13.563 10.3394 14.4633 10.3394C15.366 10.3394 16.1224 10.1166 16.5841 9.78112V11.2045ZM16.5841 8.95842C16.5841 9.04361 16.5362 9.14076 16.4346 9.24135C16.3337 9.34128 16.1845 9.43968 15.9944 9.52646C15.6145 9.69989 15.0791 9.8235 14.4633 9.8235C13.8472 9.8235 13.3117 9.70667 12.9319 9.5367C12.742 9.45166 12.593 9.35422 12.4923 9.25327C12.3912 9.152 12.3426 9.05131 12.3426 8.95842V7.53931C12.8056 7.89605 13.563 8.09334 14.4633 8.09334C15.366 8.09334 16.1224 7.87047 16.5841 7.53502V8.95842ZM14.4633 7.5774C13.8472 7.5774 13.3117 7.46056 12.9319 7.2906C12.742 7.20556 12.593 7.10812 12.4923 7.00716C12.3912 6.9059 12.3426 6.8052 12.3426 6.71232C12.3426 6.62713 12.3905 6.52998 12.492 6.42939C12.593 6.32946 12.7422 6.23107 12.9323 6.14429C13.3122 5.97085 13.8476 5.84724 14.4633 5.84724C15.0795 5.84724 15.615 5.96408 15.9947 6.13404C16.1847 6.21908 16.3337 6.31652 16.4344 6.41748C16.5354 6.51874 16.5841 6.61944 16.5841 6.71232C16.5841 6.80477 16.5343 6.90538 16.4313 7.00685C16.3287 7.10793 16.1773 7.20545 15.9857 7.29054C15.6028 7.46061 15.0672 7.5774 14.4633 7.5774Z" fill="#364DCD" stroke="#364DCD" stroke-width="0.1"/>
<path d="M8.99996 7.57738C8.2744 7.57738 7.63182 7.72408 7.16874 7.96789C6.70728 8.21084 6.41338 8.55698 6.41338 8.9584V15.669C6.41338 16.0704 6.70728 16.4165 7.16874 16.6595C7.63182 16.9033 8.2744 17.05 8.99996 17.05C9.72553 17.05 10.3681 16.9033 10.8312 16.6595C11.2926 16.4165 11.5866 16.0704 11.5866 15.669V8.9584C11.5866 8.55698 11.2926 8.21084 10.8312 7.96789C10.3681 7.72408 9.72553 7.57738 8.99996 7.57738ZM11.1207 15.669C11.1207 15.7542 11.0728 15.8513 10.9713 15.9519C10.8703 16.0518 10.7211 16.1502 10.531 16.237C10.1512 16.4104 9.61569 16.534 8.99996 16.534C8.38381 16.534 7.84828 16.4172 7.46856 16.2473C7.27858 16.1622 7.1296 16.0648 7.02888 15.9638C6.92787 15.8626 6.87923 15.7619 6.87923 15.669V14.2221C7.34226 14.5789 8.0996 14.7762 8.99996 14.7762C9.90266 14.7762 10.659 14.5533 11.1207 14.2178V15.669ZM11.1207 13.4229C11.1207 13.5081 11.0728 13.6052 10.9713 13.7058C10.8703 13.8057 10.7211 13.9041 10.531 13.9909C10.1512 14.1643 9.61569 14.2879 8.99996 14.2879C8.38381 14.2879 7.84828 14.1711 7.46856 14.0012C7.27858 13.9161 7.1296 13.8187 7.02888 13.7177C6.92787 13.6165 6.87923 13.5158 6.87923 13.4229V12.0038C7.34226 12.3605 8.0996 12.5578 8.99996 12.5578C9.90266 12.5578 10.659 12.3349 11.1207 11.9995V13.4229ZM11.1207 11.2045C11.1207 11.2897 11.0728 11.3868 10.9713 11.4874C10.8703 11.5874 10.7211 11.6858 10.531 11.7725C10.1512 11.946 9.61569 12.0696 8.99996 12.0696C8.38381 12.0696 7.84828 11.9527 7.46856 11.7828C7.27858 11.6977 7.1296 11.6003 7.02888 11.4993C6.92787 11.3981 6.87923 11.2974 6.87923 11.2045V9.78539C7.34226 10.1421 8.0996 10.3394 8.99996 10.3394C9.90266 10.3394 10.659 10.1166 11.1207 9.7811V11.2045ZM8.99996 9.82348C8.38381 9.82348 7.84828 9.70665 7.46856 9.53668C7.27858 9.45164 7.1296 9.3542 7.02888 9.25325C6.92787 9.15198 6.87923 9.05129 6.87923 8.9584C6.87923 8.87321 6.92708 8.77606 7.02867 8.67547C7.12959 8.57554 7.27882 8.47715 7.4689 8.39037C7.84878 8.21693 8.38424 8.09332 8.99996 8.09332C9.61612 8.09332 10.1516 8.21016 10.5314 8.38012C10.7214 8.46516 10.8703 8.5626 10.971 8.66356C11.0721 8.76482 11.1207 8.86552 11.1207 8.9584C11.1207 9.05129 11.0721 9.15198 10.971 9.25325C10.8703 9.3542 10.7214 9.45164 10.5314 9.53668C10.1516 9.70665 9.61612 9.82348 8.99996 9.82348Z" fill="#364DCD" stroke="#364DCD" stroke-width="0.1"/>
<path d="M3.53659 9.82349C2.81102 9.82349 2.16845 9.97019 1.70537 10.214C1.2439 10.457 0.95 10.8031 0.95 11.2045V15.669C0.95 16.0704 1.2439 16.4165 1.70537 16.6595C2.16845 16.9033 2.81102 17.05 3.53659 17.05C4.26215 17.05 4.90473 16.9033 5.36781 16.6595C5.82927 16.4165 6.12317 16.0704 6.12317 15.669V11.2045C6.12317 10.79 5.83634 10.4436 5.37681 10.2035C4.9165 9.96307 4.27383 9.82349 3.53659 9.82349ZM5.65732 15.669C5.65732 15.7542 5.60947 15.8513 5.50788 15.9519C5.40696 16.0518 5.25772 16.1502 5.06765 16.237C4.68777 16.4105 4.15231 16.5341 3.53659 16.5341C2.92043 16.5341 2.3849 16.4172 2.00518 16.2473C1.8152 16.1622 1.66622 16.0648 1.56551 15.9638C1.46449 15.8626 1.41585 15.7619 1.41585 15.669V14.2221C1.87888 14.5789 2.63622 14.7762 3.53659 14.7762C4.43928 14.7762 5.19566 14.5533 5.65732 14.2179V15.669ZM5.65732 13.4229C5.65732 13.5081 5.60947 13.6052 5.50788 13.7058C5.40696 13.8057 5.25772 13.9041 5.06765 13.9909C4.68777 14.1644 4.15231 14.288 3.53659 14.288C2.92043 14.288 2.3849 14.1711 2.00518 14.0012C1.8152 13.9161 1.66622 13.8187 1.56551 13.7177C1.46449 13.6165 1.41585 13.5158 1.41585 13.4229V12.0038C1.87888 12.3605 2.63622 12.5578 3.53659 12.5578C4.43928 12.5578 5.19566 12.3349 5.65732 11.9995V13.4229ZM3.53659 12.0419C2.92043 12.0419 2.3849 11.925 2.00518 11.7551C1.8152 11.67 1.66622 11.5726 1.56551 11.4716C1.46449 11.3704 1.41585 11.2697 1.41585 11.1768C1.41585 11.0916 1.4637 10.9944 1.56529 10.8939C1.66621 10.7939 1.81545 10.6955 2.00552 10.6087C2.3854 10.4353 2.92086 10.3117 3.53659 10.3117C4.15274 10.3117 4.68827 10.4285 5.06799 10.5985C5.25797 10.6835 5.40695 10.781 5.50767 10.8819C5.60868 10.9832 5.65732 11.0839 5.65732 11.1768C5.65732 11.2697 5.60868 11.3704 5.50767 11.4716C5.40695 11.5726 5.25797 11.67 5.06799 11.7551C4.68827 11.925 4.15274 12.0419 3.53659 12.0419Z" fill="#364DCD" stroke="#364DCD" stroke-width="0.1"/>
<path d="M14.2182 2.94107V2.99107H14.2682H14.6341H14.6841V2.94107V1V0.95H14.6341H12.9024H12.8524V1V1.41594V1.46594H12.9024H13.8893L11.3919 4.30529H6.95114H6.92853L6.91359 4.32226L3.37701 8.34306L3.34654 8.3777L3.37862 8.41085L3.64691 8.68815L3.68459 8.7271L3.72039 8.6864L7.12009 4.82123H11.5609H11.5835L11.5984 4.80425L14.2182 1.82579V2.94107Z" fill="#364DCD" stroke="#364DCD" stroke-width="0.1"/>
</svg>
