<svg width="16" height="16" viewBox="0 0 16 16" fill="none" xmlns="http://www.w3.org/2000/svg">
<g clip-path="url(#clip0)">
<path d="M15.8198 14.9495C16.0601 15.1898 16.0601 15.5794 15.8198 15.8198C15.5794 16.0601 15.1898 16.0601 14.9495 15.8198L11.9956 12.8659C11.7553 12.6256 11.7553 12.236 11.9956 11.9956C12.2359 11.7553 12.6256 11.7553 12.8659 11.9956L15.8198 14.9495ZM6.52308 13.0462C2.92048 13.0462 0 10.1257 0 6.52308C0 2.92048 2.92048 0 6.52308 0C10.1257 0 13.0462 2.92048 13.0462 6.52308C13.0462 10.1257 10.1257 13.0462 6.52308 13.0462ZM6.52308 11.8154C9.44594 11.8154 11.8154 9.44594 11.8154 6.52308C11.8154 3.60022 9.44594 1.23077 6.52308 1.23077C3.60022 1.23077 1.23077 3.60022 1.23077 6.52308C1.23077 9.44594 3.60022 11.8154 6.52308 11.8154ZM3.48718 6.03077C3.48718 6.25735 3.3035 6.44103 3.07692 6.44103C2.85034 6.44103 2.66667 6.25735 2.66667 6.03077C2.66667 4.17283 4.17283 2.66667 6.03077 2.66667C6.25735 2.66667 6.44103 2.85035 6.44103 3.07692C6.44103 3.3035 6.25735 3.48718 6.03077 3.48718C4.62598 3.48718 3.48718 4.62598 3.48718 6.03077Z" fill="#28388F"/>
</g>
<defs>
<clipPath id="clip0">
<rect width="16" height="16" fill="white"/>
</clipPath>
</defs>
</svg>
