<svg width="20" height="20" viewBox="0 0 20 20" fill="none" xmlns="http://www.w3.org/2000/svg">
<path d="M10.0049 10.5566C10.0016 10.5566 10.0016 10.5566 9.99831 10.5566C9.97854 10.5591 9.99831 10.5566 10.0049 10.5566Z" fill="#364DCD"/>
<path d="M9.9093 9.43939C9.91261 9.43939 9.91261 9.43939 9.91261 9.43939C9.93238 9.4369 9.91261 9.4369 9.9093 9.43939Z" fill="#364DCD"/>
<path d="M9.91266 9.44001C9.90609 9.44001 9.90609 9.44001 9.90935 9.44001C9.30007 9.3939 8.81928 8.88006 8.81928 8.26411C8.81928 7.61194 9.34949 7.08164 10.0016 7.08164C10.6536 7.08164 11.1838 7.61194 11.1838 8.26411C11.1838 8.57043 11.4308 8.82075 11.7404 8.82075C12.0466 8.82075 12.2969 8.57374 12.2969 8.26411C12.2969 7.19032 11.556 6.29114 10.5581 6.04081V5.47098C10.5581 5.16466 10.3111 4.91434 10.0016 4.91434C9.69197 4.91434 9.44501 5.16135 9.44501 5.47098V6.04081C8.45045 6.28782 7.70618 7.19037 7.70618 8.26411C7.70618 9.52892 8.73369 10.5599 10.0016 10.5599C10.0082 10.5599 10.0082 10.5599 10.0082 10.5599C10.6175 10.606 11.1839 11.11 11.1839 11.7325C11.1839 12.3847 10.6537 12.915 10.0016 12.915C9.34954 12.915 8.81933 12.3847 8.81933 11.7325C8.81933 11.4262 8.57236 11.1759 8.26278 11.1759C7.95651 11.1759 7.70623 11.4229 7.70623 11.7325C7.70623 12.8063 8.44719 13.7055 9.44506 13.9558V14.5223C9.44506 14.8286 9.69203 15.079 10.0016 15.079C10.3112 15.079 10.5582 14.832 10.5582 14.5223V13.9558C11.5527 13.7088 12.297 12.8062 12.297 11.7325C12.2937 10.4644 11.1739 9.44001 9.91266 9.44001Z" fill="#364DCD"/>
<path d="M9.99837 1.10997C12.5441 1.10997 14.9514 2.20679 16.6277 4.08754H14.4442C14.138 4.08754 13.8877 4.33455 13.8877 4.64418C13.8877 4.9505 14.1347 5.20082 14.4442 5.20082H17.777C18.0833 5.20082 18.3336 4.95381 18.3336 4.64418V1.30761C18.3336 1.00129 18.0866 0.750967 17.777 0.750967C17.4674 0.750967 17.2205 0.997977 17.2205 1.30761V3.08957C15.3466 1.13305 12.7515 4.34316e-10 9.99832 4.34316e-10C4.48214 -5.09506e-05 0 4.48282 0 9.99995C0 10.3063 0.24697 10.5566 0.556549 10.5566C0.866128 10.5566 1.1131 10.3096 1.1131 9.99995C1.10984 5.09877 5.09799 1.10997 9.99837 1.10997Z" fill="#364DCD"/>
<path d="M19.4435 9.44331C19.1372 9.44331 18.8869 9.69032 18.8869 9.99995C18.8869 14.9011 14.8988 18.8899 9.9984 18.8899C7.03776 18.8899 4.29776 17.4176 2.6544 15H4.99919C5.30546 15 5.55574 14.753 5.55574 14.4433C5.55574 14.137 5.30877 13.8867 4.99919 13.8867H1.66641C1.36014 13.8867 1.10986 14.1337 1.10986 14.4433V17.7767C1.10986 18.083 1.35683 18.3333 1.66641 18.3333C1.97599 18.3333 2.22296 18.0863 2.22296 17.7767V16.278C4.1001 18.6034 6.94551 20 10.0017 20C15.5179 20 20 15.5171 20 10C19.9967 9.69363 19.7498 9.44331 19.4435 9.44331Z" fill="#364DCD"/>
</svg>
