<svg width="16" height="18" viewBox="0 0 16 18" fill="none" xmlns="http://www.w3.org/2000/svg">
<g clip-path="url(#clip0)">
<path d="M8 18C9.84975 17.9988 11.642 17.3341 13.0721 16.119C14.5022 14.9038 15.4819 13.2132 15.8446 11.3345C16.2073 9.45573 15.9306 7.50489 15.0616 5.81356C14.1926 4.12223 12.785 2.79482 11.0779 2.05696C11.0019 2.02151 10.9198 2.0022 10.8364 2.00018C10.7531 1.99815 10.6702 2.01345 10.5927 2.04517C10.5152 2.07689 10.4445 2.12438 10.385 2.18484C10.3255 2.2453 10.2783 2.31751 10.2462 2.39719C10.2141 2.47687 10.1978 2.5624 10.1981 2.64874C10.1985 2.73508 10.2155 2.82047 10.2483 2.89987C10.2811 2.97926 10.3289 3.05104 10.3889 3.11098C10.4489 3.17091 10.5199 3.21778 10.5976 3.24881C12.039 3.87081 13.2279 4.99087 13.9618 6.41841C14.6958 7.84596 14.9295 9.4928 14.6233 11.0787C14.3171 12.6647 13.4899 14.0918 12.2823 15.1171C11.0748 16.1425 9.5615 16.7029 8 16.7029C6.4385 16.7029 4.92524 16.1425 3.71768 15.1171C2.51012 14.0918 1.68286 12.6647 1.37666 11.0787C1.07045 9.4928 1.30422 7.84596 2.03818 6.41841C2.77214 4.99087 3.96096 3.87081 5.40236 3.24881C5.48015 3.21778 5.55114 3.17091 5.61114 3.11098C5.67115 3.05104 5.71894 2.97926 5.7517 2.89987C5.78446 2.82047 5.80152 2.73508 5.80188 2.64874C5.80223 2.5624 5.78588 2.47687 5.75377 2.39719C5.72166 2.31751 5.67446 2.2453 5.61496 2.18484C5.55545 2.12438 5.48485 2.07689 5.40731 2.04517C5.32978 2.01345 5.2469 1.99815 5.16357 2.00018C5.08023 2.0022 4.99813 2.02151 4.92212 2.05696C3.21505 2.79482 1.80736 4.12223 0.938366 5.81356C0.0693725 7.50489 -0.207293 9.45573 0.155402 11.3345C0.518098 13.2132 1.49777 14.9038 2.92787 16.119C4.35798 17.3341 6.15025 17.9988 8 18Z" fill="white"/>
<path d="M7.27271 0.633333V8.86667C7.27271 9.03464 7.34933 9.19573 7.48572 9.3145C7.62211 9.43327 7.80709 9.5 7.99998 9.5C8.19286 9.5 8.37785 9.43327 8.51424 9.3145C8.65063 9.19573 8.72725 9.03464 8.72725 8.86667V0.633333C8.72725 0.465363 8.65063 0.304272 8.51424 0.185499C8.37785 0.066726 8.19286 0 7.99998 0C7.80709 0 7.62211 0.066726 7.48572 0.185499C7.34933 0.304272 7.27271 0.465363 7.27271 0.633333Z" fill="white"/>
</g>
<defs>
<clipPath id="clip0">
<rect width="16" height="18" fill="white"/>
</clipPath>
</defs>
</svg>
