<svg width="20" height="16" viewBox="0 0 20 16" fill="none" xmlns="http://www.w3.org/2000/svg">
<path d="M3.04349 13.1765C2.80349 13.1765 2.6087 12.9657 2.6087 12.7059V3.29412C2.6087 3.03436 2.80349 2.82353 3.04349 2.82353C3.28349 2.82353 3.47827 3.03436 3.47827 3.29412V12.7059C3.47827 12.9657 3.28349 13.1765 3.04349 13.1765Z" fill="#364DCD"/>
<path d="M4.78256 11.2941C4.54256 11.2941 4.34778 11.0833 4.34778 10.8235V3.29412C4.34778 3.03436 4.54256 2.82353 4.78256 2.82353C5.02256 2.82353 5.21734 3.03436 5.21734 3.29412V10.8235C5.21734 11.0833 5.02256 11.2941 4.78256 11.2941Z" fill="#364DCD"/>
<path d="M6.52182 11.2941C6.28182 11.2941 6.08704 11.0833 6.08704 10.8235V3.29412C6.08704 3.03436 6.28182 2.82353 6.52182 2.82353C6.76182 2.82353 6.9566 3.03436 6.9566 3.29412V10.8235C6.9566 11.0833 6.76182 11.2941 6.52182 11.2941Z" fill="#364DCD"/>
<path d="M8.26089 11.2941C8.02089 11.2941 7.82611 11.0833 7.82611 10.8235V3.29412C7.82611 3.03436 8.02089 2.82353 8.26089 2.82353C8.50089 2.82353 8.69568 3.03436 8.69568 3.29412V10.8235C8.69568 11.0833 8.50089 11.2941 8.26089 11.2941Z" fill="#364DCD"/>
<path d="M9.99997 13.1765C9.75997 13.1765 9.56519 12.9657 9.56519 12.7059V3.29412C9.56519 3.03436 9.75997 2.82353 9.99997 2.82353C10.24 2.82353 10.4347 3.03436 10.4347 3.29412V12.7059C10.4347 12.9657 10.24 13.1765 9.99997 13.1765Z" fill="#364DCD"/>
<path d="M11.7392 11.2941C11.4992 11.2941 11.3044 11.0833 11.3044 10.8235V3.29412C11.3044 3.03436 11.4992 2.82353 11.7392 2.82353C11.9792 2.82353 12.1739 3.03436 12.1739 3.29412V10.8235C12.1739 11.0833 11.9792 11.2941 11.7392 11.2941Z" fill="#364DCD"/>
<path d="M13.4782 11.2941C13.2382 11.2941 13.0435 11.0833 13.0435 10.8235V3.29412C13.0435 3.03436 13.2382 2.82353 13.4782 2.82353C13.7182 2.82353 13.913 3.03436 13.913 3.29412V10.8235C13.913 11.0833 13.7182 11.2941 13.4782 11.2941Z" fill="#364DCD"/>
<path d="M15.2174 11.2941C14.9774 11.2941 14.7826 11.0833 14.7826 10.8235V3.29412C14.7826 3.03436 14.9774 2.82353 15.2174 2.82353C15.4574 2.82353 15.6522 3.03436 15.6522 3.29412V10.8235C15.6522 11.0833 15.4574 11.2941 15.2174 11.2941Z" fill="#364DCD"/>
<path d="M16.9566 13.1765C16.7166 13.1765 16.5218 12.9657 16.5218 12.7059V3.29412C16.5218 3.03436 16.7166 2.82353 16.9566 2.82353C17.1966 2.82353 17.3914 3.03436 17.3914 3.29412V12.7059C17.3914 12.9657 17.1966 13.1765 16.9566 13.1765Z" fill="#364DCD"/>
<path d="M4.78256 13.1765C4.66952 13.1765 4.55647 13.1294 4.47821 13.0353C4.39126 12.9506 4.34778 12.8282 4.34778 12.7059C4.34778 12.5835 4.39126 12.4612 4.47821 12.3765C4.63473 12.1977 4.93039 12.1977 5.08691 12.3765C5.17386 12.4612 5.21734 12.5835 5.21734 12.7059C5.21734 12.8282 5.17386 12.9506 5.08691 13.0353C5.00865 13.1294 4.8956 13.1765 4.78256 13.1765Z" fill="#364DCD"/>
<path d="M6.52182 13.1765C6.40877 13.1765 6.30443 13.1294 6.21747 13.0447C6.13051 12.9506 6.08704 12.8282 6.08704 12.7059C6.08704 12.5835 6.13051 12.4612 6.20877 12.3765C6.39138 12.1882 6.66964 12.1976 6.82617 12.3765C6.91312 12.4612 6.9566 12.5835 6.9566 12.7059C6.9566 12.8282 6.91312 12.9506 6.82617 13.0353C6.74791 13.1294 6.63486 13.1765 6.52182 13.1765Z" fill="#364DCD"/>
<path d="M8.26089 13.1765C8.14785 13.1765 8.03481 13.1294 7.95655 13.0353C7.86959 12.9506 7.82611 12.8282 7.82611 12.7059C7.82611 12.5835 7.86959 12.4612 7.94785 12.3765C8.11307 12.1977 8.40872 12.1977 8.56524 12.3765C8.6522 12.4612 8.69568 12.5835 8.69568 12.7059C8.69568 12.8282 8.6522 12.9506 8.56524 13.0353C8.48698 13.1294 8.37394 13.1765 8.26089 13.1765Z" fill="#364DCD"/>
<path d="M11.7392 13.1765C11.6261 13.1765 11.5218 13.1294 11.4348 13.0447C11.3479 12.9506 11.3044 12.8282 11.3044 12.7059C11.3044 12.5835 11.3479 12.4612 11.4261 12.3765C11.6087 12.1882 11.887 12.1976 12.0435 12.3765C12.1305 12.4612 12.1739 12.5835 12.1739 12.7059C12.1739 12.8282 12.1305 12.9506 12.0435 13.0353C11.9653 13.1294 11.8522 13.1765 11.7392 13.1765Z" fill="#364DCD"/>
<path d="M13.4782 13.1765C13.3652 13.1765 13.2522 13.1294 13.1739 13.0353C13.0869 12.9506 13.0435 12.8282 13.0435 12.7059C13.0435 12.5835 13.0869 12.4612 13.1739 12.3765C13.3304 12.1977 13.6261 12.1977 13.7826 12.3765C13.8695 12.4612 13.913 12.5835 13.913 12.7059C13.913 12.8282 13.8695 12.9506 13.7826 13.0353C13.7043 13.1294 13.5913 13.1765 13.4782 13.1765Z" fill="#364DCD"/>
<path d="M15.2174 13.1765C15.1043 13.1765 15 13.1294 14.913 13.0447C14.8261 12.9412 14.7826 12.8282 14.7826 12.7059C14.7826 12.5835 14.8261 12.4612 14.9043 12.3765C15.0869 12.1882 15.3652 12.1976 15.5217 12.3765C15.6087 12.4612 15.6522 12.5835 15.6522 12.7059C15.6522 12.8282 15.6087 12.9506 15.5217 13.0353C15.4435 13.1294 15.3304 13.1765 15.2174 13.1765Z" fill="#364DCD"/>
<path d="M0.434782 3.76471C0.194782 3.76471 0 3.55388 0 3.29412V0.470588C0 0.210824 0.194782 0 0.434782 0H3.04347C3.28347 0 3.47826 0.210824 3.47826 0.470588C3.47826 0.730353 3.28347 0.941176 3.04347 0.941176H0.869564V3.29412C0.869564 3.55388 0.674782 3.76471 0.434782 3.76471Z" fill="#364DCD"/>
<path d="M3.04347 16H0.434782C0.194782 16 0 15.7892 0 15.5294V12.7059C0 12.4461 0.194782 12.2353 0.434782 12.2353C0.674782 12.2353 0.869564 12.4461 0.869564 12.7059V15.0588H3.04347C3.28347 15.0588 3.47826 15.2697 3.47826 15.5294C3.47826 15.7892 3.28347 16 3.04347 16Z" fill="#364DCD"/>
<path d="M19.5653 3.76471C19.3253 3.76471 19.1305 3.55388 19.1305 3.29412V0.941176H16.9566C16.7166 0.941176 16.5218 0.730353 16.5218 0.470588C16.5218 0.210824 16.7166 0 16.9566 0H19.5653C19.8053 0 20 0.210824 20 0.470588V3.29412C20 3.55388 19.8053 3.76471 19.5653 3.76471Z" fill="#364DCD"/>
<path d="M19.5653 16H16.9566C16.7166 16 16.5218 15.7892 16.5218 15.5294C16.5218 15.2697 16.7166 15.0588 16.9566 15.0588H19.1305V12.7059C19.1305 12.4461 19.3253 12.2353 19.5653 12.2353C19.8053 12.2353 20 12.4461 20 12.7059V15.5294C20 15.7892 19.8053 16 19.5653 16Z" fill="#364DCD"/>
</svg>
