<svg width="22" height="24" viewBox="0 0 22 24" fill="none" xmlns="http://www.w3.org/2000/svg">
<path d="M11 0.9C8.39579 0.9 6.28462 3.0803 6.28462 5.75687C6.28462 8.43344 8.39579 10.6137 11 10.6137C13.6042 10.6137 15.7154 8.43344 15.7154 5.75687C15.7154 3.0803 13.6042 0.9 11 0.9ZM11 1.62854C13.2112 1.62854 15.0026 3.47044 15.0026 5.75687C15.0026 8.0433 13.2112 9.8852 11 9.8852C8.78882 9.8852 6.99744 8.0433 6.99744 5.75687C6.99744 3.47044 8.78882 1.62854 11 1.62854ZM11 12.5279C5.40907 12.5279 0.9 17.4431 0.9 23.463C0.9 23.6607 1.05733 23.8273 1.25641 23.8273H20.7436C20.9427 23.8273 21.1 23.6607 21.1 23.463C21.1 17.4431 16.5909 12.5279 11 12.5279ZM11 13.2564C16.0578 13.2564 20.1807 17.6168 20.3612 23.0987H1.63878C1.81934 17.6168 5.94224 13.2564 11 13.2564Z" fill="#364DCD" stroke="#364DCD" stroke-width="0.2"/>
</svg>
