<svg width="18" height="20" viewBox="0 0 18 20" fill="none" xmlns="http://www.w3.org/2000/svg">
<path d="M9.0425 10.9152C9.00549 10.9071 8.96753 10.9057 8.93005 10.9113C8.55441 10.8676 8.27105 10.5498 8.27041 10.1717C8.27041 9.99057 8.12352 9.84368 7.94235 9.84368C7.76118 9.84368 7.61429 9.99057 7.61429 10.1717C7.61525 10.803 8.0375 11.356 8.6462 11.5231V11.8511C8.6462 12.0323 8.79309 12.1792 8.97426 12.1792C9.15543 12.1792 9.30232 12.0323 9.30232 11.8511V11.5429C10.0049 11.3959 10.4824 10.7415 10.4085 10.0276C10.3345 9.31363 9.73305 8.77108 9.01526 8.77092C8.60391 8.77092 8.27041 8.43742 8.27041 8.02606C8.27041 7.61471 8.60391 7.2812 9.01526 7.2812C9.42662 7.2812 9.76012 7.61471 9.76012 8.02606C9.76012 8.20723 9.90701 8.35412 10.0882 8.35412C10.2693 8.35412 10.4162 8.20723 10.4162 8.02606C10.4153 7.36322 9.9509 6.79152 9.30232 6.65472V6.35613C9.30232 6.17497 9.15543 6.02808 8.97426 6.02808C8.79309 6.02808 8.6462 6.17497 8.6462 6.35613V6.67474C7.96926 6.8596 7.53356 7.51683 7.62679 8.21236C7.72001 8.90788 8.3135 9.42704 9.01526 9.42688C9.42117 9.42688 9.75227 9.75189 9.75964 10.1576C9.76717 10.5634 9.44808 10.9004 9.0425 10.9152Z" fill="#364DCD"/>
<path d="M4.25806 9.12411C4.25806 11.7515 6.38787 13.8813 9.01521 13.8813C11.6425 13.8813 13.7724 11.7515 13.7724 9.12411C13.7724 6.49676 11.6425 4.36694 9.01521 4.36694C6.38915 4.36983 4.2611 6.49804 4.25806 9.12411ZM9.01521 5.02306C11.2802 5.02306 13.1162 6.8591 13.1162 9.12411C13.1162 11.3891 11.2802 13.2252 9.01521 13.2252C6.7502 13.2252 4.91417 11.3891 4.91417 9.12411C4.91673 6.86022 6.75132 5.02562 9.01521 5.02306Z" fill="#364DCD"/>
<path d="M15.3895 14.6899L12.8197 15.9041C12.4649 15.2441 11.7843 14.8241 11.0352 14.803L8.6629 14.7378C8.28727 14.727 7.91868 14.6319 7.5847 14.4594L7.3433 14.3343C6.10732 13.69 4.6341 13.6916 3.3994 14.3384L3.41446 13.7916C3.41942 13.6104 3.2767 13.4595 3.09553 13.4545L0.494135 13.3829C0.312966 13.378 0.162232 13.5207 0.157267 13.7019L0.000125743 19.4105C-0.00483994 19.5917 0.137884 19.7426 0.319053 19.7475L2.92045 19.8191H2.92942C3.10722 19.8191 3.25267 19.6777 3.25748 19.5001L3.265 19.2269L3.94082 18.8651C4.20609 18.7224 4.51621 18.6884 4.80598 18.7704L8.84167 19.9031C8.84871 19.9052 8.85576 19.9068 8.86297 19.9084C9.15467 19.9694 9.45197 20 9.74991 19.9998C10.381 20.0002 11.0048 19.8642 11.5784 19.6008C11.5925 19.5944 11.6061 19.5869 11.6191 19.5784L17.4705 15.7936C17.6162 15.6992 17.6633 15.5078 17.578 15.3566C17.1435 14.5858 16.18 14.2921 15.3895 14.6899ZM0.665051 19.1007L0.804091 14.0479L2.74953 14.1014L2.61049 19.1544L0.665051 19.1007ZM11.2829 19.0149C10.5702 19.3365 9.77426 19.4253 9.00826 19.2688L4.98346 18.139C4.53046 18.011 4.04558 18.064 3.63119 18.2868L3.28583 18.4718L3.37826 15.1123C4.47264 14.3844 5.87617 14.3096 7.04167 14.9169L7.28307 15.042C7.705 15.2598 8.17033 15.38 8.64496 15.3937L11.0174 15.4589C11.6838 15.4782 12.2497 15.9526 12.3849 16.6055L8.85112 16.508C8.66995 16.503 8.51921 16.6459 8.51409 16.8269C8.50912 17.0081 8.65201 17.159 8.83302 17.1639L12.7329 17.2713H12.742C12.9196 17.2711 13.0649 17.1297 13.0697 16.9522C13.0737 16.8096 13.0632 16.6669 13.038 16.5266L15.6739 15.2811C15.6764 15.28 15.679 15.2787 15.6815 15.2774C16.0554 15.0883 16.5075 15.1515 16.815 15.4362L11.2829 19.0149Z" fill="#364DCD"/>
<path d="M9.34313 3.44461V0.328058C9.34313 0.146889 9.19624 0 9.01507 0C8.8339 0 8.68701 0.146889 8.68701 0.328058V3.44461C8.68701 3.62577 8.8339 3.77266 9.01507 3.77266C9.19624 3.77266 9.34313 3.62577 9.34313 3.44461Z" fill="#364DCD"/>
<path d="M11.8036 3.4447V1.96844C11.8036 1.78727 11.6567 1.64038 11.4755 1.64038C11.2944 1.64038 11.1475 1.78727 11.1475 1.96844V3.4447C11.1475 3.62587 11.2944 3.77276 11.4755 3.77276C11.6567 3.77276 11.8036 3.62587 11.8036 3.4447Z" fill="#364DCD"/>
<path d="M6.88268 3.4447V1.96844C6.88268 1.78727 6.73579 1.64038 6.55462 1.64038C6.37345 1.64038 6.22656 1.78727 6.22656 1.96844V3.4447C6.22656 3.62587 6.37345 3.77276 6.55462 3.77276C6.73579 3.77276 6.88268 3.62587 6.88268 3.4447Z" fill="#364DCD"/>
</svg>
