<svg width="20" height="20" viewBox="0 0 20 20" fill="none" xmlns="http://www.w3.org/2000/svg">
<path d="M18.2207 1.92868C17.9447 1.60414 17.5423 1.41809 17.1165 1.41809H15.7191V0.980979C15.7191 0.440079 15.279 0 14.7382 0H5.26189C4.72096 0 4.28095 0.440079 4.28095 0.980939V1.41805H2.88341C2.45767 1.41805 2.05517 1.60414 1.77923 1.92864C1.5061 2.24977 1.38806 2.67157 1.45544 3.08583C1.82263 5.34364 3.24353 7.3383 5.26014 8.4324C5.44439 8.87541 5.65307 9.29502 5.88545 9.68596C6.62772 10.935 7.55049 11.7982 8.5662 12.2156C8.66913 13.2564 7.97659 14.2424 6.93362 14.4774C6.93139 14.4779 6.92983 14.4787 6.92764 14.4792C6.72408 14.5278 6.57256 14.7105 6.57256 14.9289V17.0525H5.71373C4.94803 17.0525 4.32509 17.6754 4.32509 18.4411V19.5371C4.32509 19.7928 4.53232 20 4.78799 20H15.2562C15.5119 20 15.7191 19.7928 15.7191 19.5371V18.4411C15.7191 17.6754 15.0962 17.0525 14.3305 17.0525H13.4716V14.9289C13.4716 14.7101 13.3195 14.5271 13.1154 14.4789C13.1135 14.4785 13.1117 14.4778 13.1098 14.4774C12.0589 14.2408 11.3651 13.2449 11.4788 12.1964C12.4768 11.7721 13.3834 10.9166 14.1147 9.68604C14.3471 9.29506 14.5557 8.87541 14.74 8.43232C16.7565 7.33818 18.1773 5.34357 18.5445 3.08583C18.6119 2.67157 18.4939 2.24981 18.2207 1.92868ZM2.36919 2.93719C2.34513 2.78926 2.38603 2.64407 2.48439 2.52836C2.58419 2.41102 2.72958 2.34375 2.88337 2.34375H4.28092V3.1954C4.28092 4.53079 4.45134 5.82431 4.77435 7.00724C3.50498 6.00415 2.63099 4.547 2.36919 2.93719ZM14.3305 17.9783C14.5857 17.9783 14.7934 18.1859 14.7934 18.4412V19.0743H5.25084V18.4412C5.25084 18.1859 5.4585 17.9783 5.71373 17.9783H14.3305ZM12.5458 15.3918V17.0525H7.49842V15.3918H12.5458ZM8.71237 14.4661C8.82678 14.3401 8.93139 14.2036 9.02495 14.0575C9.33343 13.5755 9.49534 13.0279 9.50261 12.4687C9.66702 12.491 9.83296 12.503 10.0003 12.503C10.1824 12.503 10.3628 12.489 10.5414 12.4626C10.5519 13.2141 10.8444 13.9255 11.3363 14.466H8.71237V14.4661ZM14.7933 3.19544C14.7933 5.47587 14.2696 7.61298 13.3188 9.21299C12.4129 10.7376 11.2343 11.5773 10.0002 11.5773C8.76596 11.5773 7.58729 10.7376 6.68123 9.21307C5.73037 7.61302 5.2067 5.47591 5.2067 3.19551V0.980939C5.2067 0.950471 5.23146 0.925744 5.26185 0.925744H14.7381C14.7686 0.925744 14.7933 0.95051 14.7933 0.980939V3.19544ZM17.6308 2.93719C17.369 4.54688 16.4951 6.004 15.2257 7.00716C15.5487 5.82423 15.7191 4.53079 15.7191 3.19544V2.34379H17.1165C17.2704 2.34379 17.4157 2.4111 17.5155 2.5284C17.6139 2.64407 17.6548 2.78926 17.6308 2.93719Z" fill="#364DCD"/>
<path d="M12.8103 4.75229C12.7558 4.58479 12.6109 4.46268 12.4366 4.43729L11.0398 4.23432L10.4152 2.96861C10.3372 2.81064 10.1763 2.7106 10.0001 2.7106C9.82387 2.7106 9.66297 2.81064 9.585 2.96861L8.96036 4.23432L7.56356 4.43729C7.38918 4.4626 7.24434 4.58475 7.18989 4.75232C7.13547 4.91994 7.18086 5.10385 7.30704 5.22686L8.31778 6.21205L8.07915 7.60319C8.04934 7.77686 8.12071 7.95233 8.26329 8.05592C8.40579 8.15948 8.59481 8.17311 8.75075 8.09116L10.0001 7.4344L11.2494 8.09116C11.3171 8.12675 11.3911 8.14428 11.4647 8.14428C11.5606 8.14428 11.6562 8.11448 11.7368 8.05589C11.8794 7.95229 11.9507 7.77682 11.9209 7.60315L11.6823 6.21201L12.6931 5.22682C12.8193 5.10385 12.8647 4.9199 12.8103 4.75229ZM10.862 5.71897C10.7529 5.8253 10.7031 5.9785 10.7288 6.12869L10.85 6.83534L10.2154 6.5017C10.1481 6.46623 10.074 6.44858 10 6.44858C9.92606 6.44858 9.85208 6.46631 9.78465 6.5017L9.15008 6.83534L9.27125 6.12869C9.29704 5.97854 9.24723 5.82533 9.13813 5.71897L8.62481 5.21858L9.33426 5.11545C9.485 5.09358 9.61536 4.99885 9.68278 4.86225L10.0001 4.21935L10.3173 4.86225C10.3848 4.99885 10.5151 5.09354 10.6659 5.11545L11.3753 5.21858L10.862 5.71897Z" fill="#364DCD"/>
</svg>
