<svg width="20" height="20" viewBox="0 0 20 20" fill="none" xmlns="http://www.w3.org/2000/svg">
<path d="M3.32301 17.7707C3.25039 17.698 3.14961 17.6562 3.04688 17.6562C2.94414 17.6562 2.84336 17.698 2.7707 17.7707C2.69805 17.8434 2.65625 17.9441 2.65625 18.0469C2.65625 18.1496 2.69801 18.2504 2.7707 18.323C2.84336 18.3957 2.94414 18.4375 3.04688 18.4375C3.14961 18.4375 3.25039 18.3957 3.32301 18.323C3.39566 18.2504 3.4375 18.1496 3.4375 18.0469C3.4375 17.9441 3.3957 17.8434 3.32301 17.7707Z" fill="#364DCD"/>
<path d="M18.3409 7.14601C18.2682 7.07331 18.1678 7.03156 18.0647 7.03156C17.962 7.03156 17.8612 7.07331 17.7885 7.14601C17.7159 7.21866 17.6741 7.31945 17.6741 7.42218C17.6741 7.52491 17.7159 7.6257 17.7885 7.69831C17.8612 7.77097 17.962 7.81281 18.0647 7.81281C18.1678 7.81281 18.2682 7.77101 18.3409 7.69831C18.4139 7.6257 18.4557 7.52491 18.4557 7.42218C18.4557 7.31945 18.4139 7.21866 18.3409 7.14601Z" fill="#364DCD"/>
<path d="M19.8856 0.114414C19.8123 0.0411719 19.7129 0 19.6093 0L10.0001 0.000507812C9.78443 0.000507812 9.60955 0.17543 9.60955 0.391133V1.5082L5.90686 2.50035C5.69846 2.55621 5.57479 2.77039 5.63064 2.97875L7.54967 10.1405L5.88955 11.8007C5.67826 11.4921 5.3235 11.2893 4.92221 11.2893H1.17232C0.526152 11.2893 0.000488281 11.815 0.000488281 12.4611V18.8281C0.000488281 19.4743 0.526152 20 1.17232 20H4.92225C5.47119 20 5.93299 19.6205 6.05955 19.1102L6.524 19.5152C6.88256 19.8279 7.34193 20 7.81768 20H19.6094C19.8251 20 20 19.8251 20 19.6094V0.390625C19.9999 0.287031 19.9588 0.187656 19.8856 0.114414ZM5.31279 18.8282C5.31279 19.0435 5.13756 19.2188 4.92217 19.2188H1.17229C0.956895 19.2188 0.78166 19.0436 0.78166 18.8282V12.4611C0.78166 12.2457 0.956895 12.0705 1.17229 12.0705H2.65662V16.5703C2.65662 16.786 2.83154 16.9609 3.04725 16.9609C3.26295 16.9609 3.43787 16.786 3.43787 16.5703V12.0705H4.92221C5.1376 12.0705 5.31283 12.2457 5.31283 12.4611V18.8282H5.31279ZM6.48635 3.15387L9.60955 2.31699V3.76445L9.34775 3.83461C9.24764 3.86145 9.16236 3.92687 9.11057 4.0166C9.05877 4.10633 9.04471 4.21293 9.07154 4.31301C9.22166 4.8732 8.88803 5.45105 8.32783 5.60117C8.22764 5.62805 8.14221 5.69359 8.09045 5.78352C8.03869 5.8734 8.02475 5.9802 8.05182 6.08035L9.57443 11.7186H8.79045L8.38643 10.1379C8.37357 10.0876 8.35107 10.0412 8.32096 10.0009L6.48635 3.15387ZM9.60955 5.55582V8.85195L8.89709 6.21387C9.19471 6.06019 9.43826 5.83027 9.60955 5.55582ZM15.2214 19.2188H7.8176C7.53068 19.2188 7.25361 19.1149 7.03736 18.9264L6.09404 18.1037V12.7011L7.79943 10.9957L8.10873 12.2058C8.15295 12.3787 8.30869 12.4997 8.48717 12.4997L16.167 12.5002C16.4686 12.5002 16.7139 12.7455 16.7139 13.047C16.7139 13.3486 16.4686 13.5939 16.167 13.5939H12.2319C12.0162 13.5939 11.8412 13.7688 11.8412 13.9845C11.8412 14.2002 12.0162 14.3752 12.2319 14.3752H17.3897C17.6912 14.3752 17.9365 14.6205 17.9365 14.922C17.9365 15.2236 17.6912 15.4689 17.3897 15.4689H12.2319C12.0162 15.4689 11.8412 15.6438 11.8412 15.8595C11.8412 16.0752 12.0162 16.2502 12.2319 16.2502H16.5538C16.8554 16.2502 17.1007 16.4955 17.1007 16.797C17.1007 17.0986 16.8554 17.3439 16.5538 17.3439H12.2319C12.0162 17.3439 11.8412 17.5188 11.8412 17.7345C11.8412 17.9502 12.0162 18.1252 12.2319 18.1252H15.2214C15.523 18.1252 15.7683 18.3705 15.7683 18.672C15.7683 18.9734 15.5229 19.2188 15.2214 19.2188ZM19.2187 19.2188H19.2187H16.4312C16.507 19.0518 16.5495 18.8668 16.5495 18.6719C16.5495 18.477 16.507 18.2919 16.4312 18.125H16.5538C17.2862 18.125 17.8819 17.5292 17.8819 16.7969C17.8819 16.5833 17.831 16.3815 17.741 16.2025C18.3033 16.048 18.7177 15.5326 18.7177 14.922C18.7177 14.6257 18.6201 14.3518 18.4556 14.1307V9.17996C18.4556 8.96426 18.2806 8.78934 18.0649 8.78934C17.8492 8.78934 17.6743 8.96426 17.6743 9.17996V13.625C17.5825 13.6048 17.4873 13.5939 17.3896 13.5939H17.3768C17.4525 13.427 17.4951 13.242 17.4951 13.047C17.4951 12.3147 16.8993 11.7189 16.167 11.7189H15.539C16.2058 11.433 16.6741 10.7703 16.6741 10C16.6741 8.96918 15.8355 8.13055 14.8047 8.13055C13.7739 8.13055 12.9353 8.96918 12.9353 10C12.9353 10.7703 13.4036 11.433 14.0703 11.7189H11.935V4.29152C12.6328 4.13945 13.1835 3.58887 13.3355 2.89102H16.2738C16.4258 3.58887 16.9765 4.13945 17.6743 4.29152V5.50598C17.6743 5.72168 17.8492 5.8966 18.0649 5.8966C18.2806 5.8966 18.4555 5.72168 18.4555 5.50598V3.94277C18.4555 3.72707 18.2806 3.55215 18.0649 3.55215C17.4849 3.55215 17.0132 3.08031 17.0132 2.50039C17.0132 2.28469 16.8383 2.10977 16.6226 2.10977H12.9868C12.7711 2.10977 12.5962 2.28469 12.5962 2.50039C12.5962 3.08035 12.1244 3.55215 11.5444 3.55215C11.3287 3.55215 11.1538 3.72707 11.1538 3.94277V11.7189H10.3908V0.78168L19.2187 0.78125V19.2188ZM14.8047 11.0882C14.2047 11.0882 13.7166 10.6 13.7166 10C13.7166 9.40004 14.2047 8.91184 14.8047 8.91184C15.4047 8.91184 15.8929 9.4 15.8929 10C15.8929 10.6 15.4048 11.0882 14.8047 11.0882Z" fill="#364DCD"/>
</svg>
