<svg width="22" height="19" viewBox="0 0 22 19" fill="none" xmlns="http://www.w3.org/2000/svg">
<mask id="path-1-outside-1" maskUnits="userSpaceOnUse" x="0" y="0" width="22" height="19" fill="black">
<rect fill="white" width="22" height="19"/>
<path d="M21 4.88691H16.4462L16.8462 3.86689C17 3.46506 16.9385 3.03232 16.7231 2.69231L17.1231 1.7032C17.1846 1.54865 17.1231 1.3941 16.9692 1.33228L16.2308 1.02318C16.1692 0.992273 16.0769 0.992273 16.0154 1.02318C15.9538 1.05409 15.8923 1.11591 15.8615 1.17773L15.4308 2.19776C15.0308 2.29049 14.6923 2.56868 14.5385 2.9705L14.3231 3.49597L13.2462 3.06323L12.5077 4.94873H1V16.2927H9.64615C9.64615 16.4163 9.64615 16.5399 9.64615 16.6636C9.64615 16.9109 9.76923 17.1272 9.95385 17.2818L9.55385 18.2709C9.49231 18.3945 9.55385 18.5182 9.67692 18.58C9.83077 18.6418 9.95385 18.5491 9.98462 18.4563L10.3846 17.4672C10.6308 17.4981 10.8769 17.4054 11.0308 17.2509C11.3077 16.9727 11.5538 16.6636 11.7692 16.3236H21V4.88691ZM16.2 1.51774L16.6615 1.7032L16.3846 2.35231C16.3231 2.3214 16.2308 2.25958 16.1692 2.22867C16.0769 2.19776 16.0154 2.19776 15.9231 2.16685L16.2 1.51774ZM1.46154 15.8012V5.35365H12.3231L11.3385 7.82644L11.7692 8.0119L13.5231 3.6227L14.1692 3.86998L10.1077 14.0084C9.89231 14.5957 9.73846 15.183 9.67692 15.8012H1.46154ZM10.6615 16.8521C10.5692 16.9449 10.4154 16.9758 10.2923 16.9139C10.1692 16.8521 10.0769 16.7285 10.0769 16.6048C10.0769 15.7703 10.2308 14.9357 10.5385 14.163L14.9385 3.12814C15.0615 2.81905 15.4615 2.47904 15.9846 2.69541C16.3846 2.84996 16.6 3.3136 16.4154 3.74634L12.0154 14.7812C11.7077 15.5539 11.2462 16.2648 10.6615 16.8521ZM12.0462 15.8012C12.2 15.523 12.3538 15.2448 12.4769 14.9666L16.2923 5.38456H20.5692V15.8012H12.0462Z"/>
<path d="M13.4541 7.68576L13.2825 8.11617L14.225 8.49552L14.3967 8.06511L13.4541 7.68576Z"/>
<path d="M13.8248 6.75634L13.6532 7.18675L14.5957 7.56609L14.7674 7.13569L13.8248 6.75634Z"/>
<path d="M10.3846 7.11242H2.47692V7.57607H10.3846V7.11242Z"/>
<path d="M8.63077 8.78155H2.47692V9.2452H8.63077V8.78155Z"/>
<path d="M19.4616 12.2466H14.4462V12.7102H19.4616V12.2466Z"/>
<path d="M19.4615 10.8247H15.5538V11.2883H19.4615V10.8247Z"/>
<path d="M6.90773 13.9466H6.44619V14.4102H6.90773V13.9466Z"/>
<path d="M7.89231 13.9466H7.43077V14.4102H7.89231V13.9466Z"/>
<path d="M2.99997 13.9466H2.53844V14.4102H2.99997V13.9466Z"/>
<path d="M4.93841 13.9466H4.47687V14.4102H4.93841V13.9466Z"/>
<path d="M3.98469 13.9466H3.52315V14.4102H3.98469V13.9466Z"/>
<path d="M5.92307 13.9466H5.46153V14.4102H5.92307V13.9466Z"/>
<path d="M8.84616 13.9466H8.38463V14.4102H8.84616V13.9466Z"/>
<path d="M16.5385 13.9466H16.0769V14.4102H16.5385V13.9466Z"/>
<path d="M15.5538 13.9466H15.0923V14.4102H15.5538V13.9466Z"/>
<path d="M14.6001 13.9466H14.1385V14.4102H14.6001V13.9466Z"/>
<path d="M19.4615 13.9466H19V14.4102H19.4615V13.9466Z"/>
<path d="M18.5077 13.9466H18.0462V14.4102H18.5077V13.9466Z"/>
<path d="M13.6154 13.9466H13.5538V14.4102H13.6154V13.9466Z"/>
<path d="M17.5231 13.9466H17.0616V14.4102H17.5231V13.9466Z"/>
</mask>
<path d="M21 4.88691H16.4462L16.8462 3.86689C17 3.46506 16.9385 3.03232 16.7231 2.69231L17.1231 1.7032C17.1846 1.54865 17.1231 1.3941 16.9692 1.33228L16.2308 1.02318C16.1692 0.992273 16.0769 0.992273 16.0154 1.02318C15.9538 1.05409 15.8923 1.11591 15.8615 1.17773L15.4308 2.19776C15.0308 2.29049 14.6923 2.56868 14.5385 2.9705L14.3231 3.49597L13.2462 3.06323L12.5077 4.94873H1V16.2927H9.64615C9.64615 16.4163 9.64615 16.5399 9.64615 16.6636C9.64615 16.9109 9.76923 17.1272 9.95385 17.2818L9.55385 18.2709C9.49231 18.3945 9.55385 18.5182 9.67692 18.58C9.83077 18.6418 9.95385 18.5491 9.98462 18.4563L10.3846 17.4672C10.6308 17.4981 10.8769 17.4054 11.0308 17.2509C11.3077 16.9727 11.5538 16.6636 11.7692 16.3236H21V4.88691ZM16.2 1.51774L16.6615 1.7032L16.3846 2.35231C16.3231 2.3214 16.2308 2.25958 16.1692 2.22867C16.0769 2.19776 16.0154 2.19776 15.9231 2.16685L16.2 1.51774ZM1.46154 15.8012V5.35365H12.3231L11.3385 7.82644L11.7692 8.0119L13.5231 3.6227L14.1692 3.86998L10.1077 14.0084C9.89231 14.5957 9.73846 15.183 9.67692 15.8012H1.46154ZM10.6615 16.8521C10.5692 16.9449 10.4154 16.9758 10.2923 16.9139C10.1692 16.8521 10.0769 16.7285 10.0769 16.6048C10.0769 15.7703 10.2308 14.9357 10.5385 14.163L14.9385 3.12814C15.0615 2.81905 15.4615 2.47904 15.9846 2.69541C16.3846 2.84996 16.6 3.3136 16.4154 3.74634L12.0154 14.7812C11.7077 15.5539 11.2462 16.2648 10.6615 16.8521ZM12.0462 15.8012C12.2 15.523 12.3538 15.2448 12.4769 14.9666L16.2923 5.38456H20.5692V15.8012H12.0462Z" fill="#364DCD"/>
<path d="M13.4541 7.68576L13.2825 8.11617L14.225 8.49552L14.3967 8.06511L13.4541 7.68576Z" fill="#364DCD"/>
<path d="M13.8248 6.75634L13.6532 7.18675L14.5957 7.56609L14.7674 7.13569L13.8248 6.75634Z" fill="#364DCD"/>
<path d="M10.3846 7.11242H2.47692V7.57607H10.3846V7.11242Z" fill="#364DCD"/>
<path d="M8.63077 8.78155H2.47692V9.2452H8.63077V8.78155Z" fill="#364DCD"/>
<path d="M19.4616 12.2466H14.4462V12.7102H19.4616V12.2466Z" fill="#364DCD"/>
<path d="M19.4615 10.8247H15.5538V11.2883H19.4615V10.8247Z" fill="#364DCD"/>
<path d="M6.90773 13.9466H6.44619V14.4102H6.90773V13.9466Z" fill="#364DCD"/>
<path d="M7.89231 13.9466H7.43077V14.4102H7.89231V13.9466Z" fill="#364DCD"/>
<path d="M2.99997 13.9466H2.53844V14.4102H2.99997V13.9466Z" fill="#364DCD"/>
<path d="M4.93841 13.9466H4.47687V14.4102H4.93841V13.9466Z" fill="#364DCD"/>
<path d="M3.98469 13.9466H3.52315V14.4102H3.98469V13.9466Z" fill="#364DCD"/>
<path d="M5.92307 13.9466H5.46153V14.4102H5.92307V13.9466Z" fill="#364DCD"/>
<path d="M8.84616 13.9466H8.38463V14.4102H8.84616V13.9466Z" fill="#364DCD"/>
<path d="M16.5385 13.9466H16.0769V14.4102H16.5385V13.9466Z" fill="#364DCD"/>
<path d="M15.5538 13.9466H15.0923V14.4102H15.5538V13.9466Z" fill="#364DCD"/>
<path d="M14.6001 13.9466H14.1385V14.4102H14.6001V13.9466Z" fill="#364DCD"/>
<path d="M19.4615 13.9466H19V14.4102H19.4615V13.9466Z" fill="#364DCD"/>
<path d="M18.5077 13.9466H18.0462V14.4102H18.5077V13.9466Z" fill="#364DCD"/>
<path d="M13.6154 13.9466H13.5538V14.4102H13.6154V13.9466Z" fill="#364DCD"/>
<path d="M17.5231 13.9466H17.0616V14.4102H17.5231V13.9466Z" fill="#364DCD"/>
<path d="M21 4.88691H16.4462L16.8462 3.86689C17 3.46506 16.9385 3.03232 16.7231 2.69231L17.1231 1.7032C17.1846 1.54865 17.1231 1.3941 16.9692 1.33228L16.2308 1.02318C16.1692 0.992273 16.0769 0.992273 16.0154 1.02318C15.9538 1.05409 15.8923 1.11591 15.8615 1.17773L15.4308 2.19776C15.0308 2.29049 14.6923 2.56868 14.5385 2.9705L14.3231 3.49597L13.2462 3.06323L12.5077 4.94873H1V16.2927H9.64615C9.64615 16.4163 9.64615 16.5399 9.64615 16.6636C9.64615 16.9109 9.76923 17.1272 9.95385 17.2818L9.55385 18.2709C9.49231 18.3945 9.55385 18.5182 9.67692 18.58C9.83077 18.6418 9.95385 18.5491 9.98462 18.4563L10.3846 17.4672C10.6308 17.4981 10.8769 17.4054 11.0308 17.2509C11.3077 16.9727 11.5538 16.6636 11.7692 16.3236H21V4.88691ZM16.2 1.51774L16.6615 1.7032L16.3846 2.35231C16.3231 2.3214 16.2308 2.25958 16.1692 2.22867C16.0769 2.19776 16.0154 2.19776 15.9231 2.16685L16.2 1.51774ZM1.46154 15.8012V5.35365H12.3231L11.3385 7.82644L11.7692 8.0119L13.5231 3.6227L14.1692 3.86998L10.1077 14.0084C9.89231 14.5957 9.73846 15.183 9.67692 15.8012H1.46154ZM10.6615 16.8521C10.5692 16.9449 10.4154 16.9758 10.2923 16.9139C10.1692 16.8521 10.0769 16.7285 10.0769 16.6048C10.0769 15.7703 10.2308 14.9357 10.5385 14.163L14.9385 3.12814C15.0615 2.81905 15.4615 2.47904 15.9846 2.69541C16.3846 2.84996 16.6 3.3136 16.4154 3.74634L12.0154 14.7812C11.7077 15.5539 11.2462 16.2648 10.6615 16.8521ZM12.0462 15.8012C12.2 15.523 12.3538 15.2448 12.4769 14.9666L16.2923 5.38456H20.5692V15.8012H12.0462Z" stroke="#364DCD" stroke-width="0.26" mask="url(#path-1-outside-1)"/>
<path d="M13.4541 7.68576L13.2825 8.11617L14.225 8.49552L14.3967 8.06511L13.4541 7.68576Z" stroke="#364DCD" stroke-width="0.26" mask="url(#path-1-outside-1)"/>
<path d="M13.8248 6.75634L13.6532 7.18675L14.5957 7.56609L14.7674 7.13569L13.8248 6.75634Z" stroke="#364DCD" stroke-width="0.26" mask="url(#path-1-outside-1)"/>
<path d="M10.3846 7.11242H2.47692V7.57607H10.3846V7.11242Z" stroke="#364DCD" stroke-width="0.26" mask="url(#path-1-outside-1)"/>
<path d="M8.63077 8.78155H2.47692V9.2452H8.63077V8.78155Z" stroke="#364DCD" stroke-width="0.26" mask="url(#path-1-outside-1)"/>
<path d="M19.4616 12.2466H14.4462V12.7102H19.4616V12.2466Z" stroke="#364DCD" stroke-width="0.26" mask="url(#path-1-outside-1)"/>
<path d="M19.4615 10.8247H15.5538V11.2883H19.4615V10.8247Z" stroke="#364DCD" stroke-width="0.26" mask="url(#path-1-outside-1)"/>
<path d="M6.90773 13.9466H6.44619V14.4102H6.90773V13.9466Z" stroke="#364DCD" stroke-width="0.26" mask="url(#path-1-outside-1)"/>
<path d="M7.89231 13.9466H7.43077V14.4102H7.89231V13.9466Z" stroke="#364DCD" stroke-width="0.26" mask="url(#path-1-outside-1)"/>
<path d="M2.99997 13.9466H2.53844V14.4102H2.99997V13.9466Z" stroke="#364DCD" stroke-width="0.26" mask="url(#path-1-outside-1)"/>
<path d="M4.93841 13.9466H4.47687V14.4102H4.93841V13.9466Z" stroke="#364DCD" stroke-width="0.26" mask="url(#path-1-outside-1)"/>
<path d="M3.98469 13.9466H3.52315V14.4102H3.98469V13.9466Z" stroke="#364DCD" stroke-width="0.26" mask="url(#path-1-outside-1)"/>
<path d="M5.92307 13.9466H5.46153V14.4102H5.92307V13.9466Z" stroke="#364DCD" stroke-width="0.26" mask="url(#path-1-outside-1)"/>
<path d="M8.84616 13.9466H8.38463V14.4102H8.84616V13.9466Z" stroke="#364DCD" stroke-width="0.26" mask="url(#path-1-outside-1)"/>
<path d="M16.5385 13.9466H16.0769V14.4102H16.5385V13.9466Z" stroke="#364DCD" stroke-width="0.26" mask="url(#path-1-outside-1)"/>
<path d="M15.5538 13.9466H15.0923V14.4102H15.5538V13.9466Z" stroke="#364DCD" stroke-width="0.26" mask="url(#path-1-outside-1)"/>
<path d="M14.6001 13.9466H14.1385V14.4102H14.6001V13.9466Z" stroke="#364DCD" stroke-width="0.26" mask="url(#path-1-outside-1)"/>
<path d="M19.4615 13.9466H19V14.4102H19.4615V13.9466Z" stroke="#364DCD" stroke-width="0.26" mask="url(#path-1-outside-1)"/>
<path d="M18.5077 13.9466H18.0462V14.4102H18.5077V13.9466Z" stroke="#364DCD" stroke-width="0.26" mask="url(#path-1-outside-1)"/>
<path d="M13.6154 13.9466H13.5538V14.4102H13.6154V13.9466Z" stroke="#364DCD" stroke-width="0.26" mask="url(#path-1-outside-1)"/>
<path d="M17.5231 13.9466H17.0616V14.4102H17.5231V13.9466Z" stroke="#364DCD" stroke-width="0.26" mask="url(#path-1-outside-1)"/>
</svg>
