<svg width="20" height="16" viewBox="0 0 20 16" fill="none" xmlns="http://www.w3.org/2000/svg">
<path d="M14.4138 1.59559L14.4138 1.5956L16.6781 3.83806L16.9371 4.09463H16.5725H9.00216H9.00021V4.09462C8.88736 4.09316 8.77536 4.11394 8.67075 4.15573C8.56614 4.19752 8.47103 4.25947 8.39093 4.33792C8.31083 4.41636 8.24734 4.50972 8.20406 4.61254C8.16079 4.71537 8.13858 4.82564 8.13869 4.93697C8.1388 5.0483 8.16123 5.15853 8.20471 5.26127C8.2482 5.36401 8.31189 5.45725 8.39214 5.53553C8.4724 5.61381 8.56763 5.67558 8.67233 5.71716C8.77703 5.75875 8.88906 5.77931 9.00191 5.77762L9.00416 5.77758V5.7776H16.594H16.9587L16.6996 6.03418L14.4138 8.29794L14.4117 8.30004L14.4117 8.30002C14.3301 8.37763 14.2651 8.47051 14.2203 8.5732C14.1755 8.67587 14.1519 8.78633 14.1508 8.8981C14.1496 9.00987 14.171 9.12077 14.2136 9.22433C14.2563 9.32789 14.3194 9.42206 14.3993 9.50129C14.4792 9.58052 14.5744 9.64322 14.6792 9.68564C14.7841 9.72807 14.8964 9.74935 15.0098 9.7482C15.1231 9.74706 15.235 9.72351 15.3389 9.67898C15.4428 9.63445 15.5367 9.56985 15.615 9.48902L15.6171 9.48677L15.6172 9.48679L19.6006 5.54216L19.6007 5.54209C19.6798 5.46386 19.7425 5.37099 19.7853 5.26885C19.828 5.16671 19.85 5.05727 19.85 4.94677C19.85 4.83627 19.828 4.72682 19.7853 4.62468C19.7425 4.52255 19.6798 4.42968 19.6007 4.35145L19.6006 4.35138L15.6172 0.406742L15.6156 0.405236L15.6157 0.405225C15.5363 0.324355 15.4413 0.260042 15.3362 0.216172L14.4138 1.59559ZM14.4138 1.59559L14.4124 1.59422C14.2914 1.47747 14.2083 1.32778 14.1737 1.16435C14.1391 1.00092 14.1543 0.830953 14.2176 0.676092L14.0787 0.619356M14.4138 1.59559L14.0787 0.619356M14.0787 0.619356L14.2176 0.676091C14.2809 0.521216 14.3894 0.388329 14.5294 0.294544C14.6695 0.20075 14.8348 0.150375 15.0041 0.150002M14.0787 0.619356L15.0041 0.150002M15.0041 0.150002L15.0038 0.150002L15.0037 0.150002V0L15.0038 0.0182626L15.004 0.126003L15.0041 0.150001L15.0041 0.150002ZM4.38978 6.32649L4.3898 6.32651L4.39155 6.32471C4.54517 6.16711 4.75498 6.07482 4.97653 6.06785C5.14823 6.06249 5.31746 6.10873 5.46198 6.20034C5.6065 6.29196 5.71948 6.4246 5.7863 6.5807C5.85312 6.73678 5.87075 6.90916 5.83692 7.07527C5.80309 7.24139 5.71935 7.39368 5.59645 7.51207L5.59644 7.51206L5.59488 7.51361L3.30326 9.78705L3.04472 10.0435H3.4089H11.0046V10.0435L11.0067 10.0435C11.1196 10.0419 11.2316 10.0626 11.3363 10.1043C11.4409 10.146 11.5361 10.2078 11.6163 10.2862C11.6965 10.3646 11.7601 10.4579 11.8034 10.5606C11.8468 10.6634 11.8692 10.7737 11.8692 10.885C11.8692 10.9964 11.8468 11.1066 11.8034 11.2094C11.7601 11.3122 11.6965 11.4055 11.6163 11.4838C11.5361 11.5622 11.4409 11.6241 11.3363 11.6657C11.2316 11.7074 11.1196 11.7281 11.0067 11.7265L11.0067 11.7265H11.0046H3.41867H3.05449L3.31303 11.983L5.59485 14.2467C5.67374 14.325 5.73623 14.4179 5.77881 14.52C5.82139 14.6221 5.84325 14.7315 5.84317 14.8419C5.84309 14.9522 5.82108 15.0616 5.77836 15.1636C5.73564 15.2657 5.67302 15.3584 5.59402 15.4366C5.51501 15.5148 5.42117 15.5769 5.31782 15.6193C5.21446 15.6616 5.10365 15.6834 4.99174 15.6833C4.87982 15.6833 4.76904 15.6613 4.66575 15.6188C4.56245 15.5763 4.4687 15.5141 4.3898 15.4358L4.38978 15.4358L0.398502 11.4757L0.398472 11.4756C0.239219 11.3177 0.15 11.1039 0.15 10.8811C0.15 10.6584 0.239219 10.4446 0.398472 10.2866L0.398502 10.2866L4.38978 6.32649Z" fill="#364DCD" stroke="white" stroke-width="0.3"/>
</svg>
