<svg width="135" height="52" viewBox="0 0 135 52" fill="none" xmlns="http://www.w3.org/2000/svg">
<path d="M26.1435 22.0775C26.1435 15.0167 20.5579 9.264 13.5703 9.00391C13.4519 8.99626 13.3334 8.99626 13.215 8.99626C13.1691 8.99626 13.1195 8.99243 13.0736 8.99243H13.0622H13.0507C9.55499 8.99243 6.37636 10.2164 4.09936 12.4425C3.52629 13.0048 3.01817 13.6206 2.57117 14.2861C0.955117 16.4625 0 19.1591 0 22.0775C0 29.3067 5.85295 35.1665 13.0698 35.1665C14.9762 35.1665 20.8063 34.631 20.8063 41.0186C20.8063 46.5036 14.5942 46.932 12.7756 46.932C9.06979 46.932 5.11178 45.379 5.11178 41.0186V40.5596C5.11178 40.2995 4.90166 40.0892 4.64569 40.0892H0.466097C0.206305 40.0892 0 40.2995 0 40.5596V41.0186C0 44.3616 1.32188 47.1844 3.82429 49.181C6.09747 50.9979 9.27609 52 12.7756 52C20.5618 52 25.8722 47.6893 25.8722 41.0186C25.8722 37.3123 24.2027 34.3326 21.1119 32.3972C24.1721 29.999 26.1435 26.2697 26.1435 22.0775ZM21.1425 22.0775C21.1425 26.5412 17.5283 30.1596 13.0698 30.1596C8.61133 30.1596 5.00099 26.5412 5.00099 22.0775C5.00099 19.8208 5.92554 17.786 7.41171 16.321C8.09175 15.5713 8.94371 15.0014 9.94468 14.6266C10.9074 14.2211 11.9619 13.9954 13.0698 13.9954C17.5283 13.9993 21.1425 17.6177 21.1425 22.0775Z" fill="white"/>
<path d="M54.5562 29.5896C54.7396 29.3525 54.6976 29.0121 54.4607 28.8208L51.6985 26.61C51.454 26.4149 51.0987 26.4608 50.9115 26.7095L50.4569 27.31C49.1465 29.0465 46.1971 30.259 43.2782 30.259C39.9773 30.259 36.4893 28.4307 35.5189 24.3915H55.6871L55.8017 23.2288C56.2181 18.9754 55.2325 15.3876 52.9402 12.8594C50.6823 10.3617 47.2477 8.98853 43.2744 8.98853C39.7978 8.98853 36.5695 10.3005 34.1817 12.6872C31.7557 15.1084 30.4224 18.4285 30.4224 22.0392C30.4224 25.8641 31.7251 29.1498 34.197 31.5403C36.5313 33.8009 39.7558 35.044 43.2744 35.044C47.6641 35.044 51.817 33.1698 54.1131 30.1557L54.5562 29.5896ZM43.2821 13.6435C47.8093 13.6435 50.6059 15.8811 51.1255 19.836H35.5265C36.4129 16.0761 39.389 13.6435 43.2821 13.6435Z" fill="white"/>
<path d="M72.5774 8.94653C69.9298 8.98478 67.5802 9.79184 65.7693 11.2338V9.4323C65.7693 9.19133 65.5745 8.99243 65.33 8.99243H61.4254C61.1809 8.99243 60.9861 9.19133 60.9861 9.4323V34.2867C60.9861 34.5315 61.1847 34.7266 61.4254 34.7266H65.3758C65.6203 34.7266 65.8152 34.5315 65.8152 34.2867V20.7541C65.8152 16.6614 68.5697 13.7736 72.5124 13.7354H72.6194C74.7474 13.7354 76.4704 14.332 77.6089 15.4604C78.7474 16.5888 79.3243 18.2297 79.3243 20.3372V34.2867C79.3243 34.5315 79.5192 34.7266 79.7637 34.7266H83.714C83.9585 34.7266 84.1534 34.5315 84.1534 34.2867V20.2913C84.161 13.3988 79.6223 8.94653 72.5774 8.94653Z" fill="white"/>
<path d="M124.639 34.7266C124.883 34.7266 125.078 34.5315 125.078 34.2867V9.4323C125.078 9.19133 124.88 8.99243 124.639 8.99243H120.692C120.448 8.99243 120.249 9.19133 120.249 9.4323V11.2797C118.033 9.55087 115.244 9.02303 112.215 9.02303C109.689 9.02303 107.336 9.73829 105.338 10.9737C104.837 11.2797 104.36 11.6202 103.913 11.9912C101.009 14.3779 99.1602 17.9925 99.1602 22.0355C99.1602 29.2225 105.005 35.0479 112.215 35.0479C115.244 35.0479 118.033 34.019 120.249 32.2901V34.2829C120.249 34.5277 120.448 34.7228 120.692 34.7228H124.639V34.7266ZM104.203 21.9896C104.203 17.2466 107.577 13.808 112.226 13.808C117.873 13.808 120.448 18.0614 120.448 22.0125C120.448 24.1851 119.718 26.197 118.396 27.6849C116.918 29.3449 114.786 30.2208 112.23 30.2208C107.58 30.217 104.203 26.7554 104.203 21.9896Z" fill="white"/>
<path d="M134.557 0H130.61C130.366 0 130.171 0.198897 130.171 0.439868V34.2829C130.171 34.5277 130.37 34.7266 130.61 34.7266H134.557C134.801 34.7266 134.996 34.5277 134.996 34.2829V0.439868C135 0.198897 134.801 0 134.557 0Z" fill="white"/>
<path d="M89.6816 34.7266H93.6396C93.8803 34.7266 94.0752 34.5315 94.0752 34.2906V9.42847C94.0752 9.1875 93.8803 8.99243 93.6396 8.99243H89.6816C89.4409 8.99243 89.2461 9.1875 89.2461 9.42847V34.2944C89.2461 34.5315 89.4409 34.7266 89.6816 34.7266Z" fill="white"/>
<path d="M20.0229 2.14961C20.0229 3.33534 20.9819 4.29923 22.1701 4.29923H25.2188C25.7269 4.29923 26.1395 4.71232 26.1395 5.22104V8.27334C26.1395 9.46289 27.1023 10.4229 28.2866 10.4229C29.471 10.4229 30.4337 9.45907 30.4337 8.27334V1.07481C30.4337 0.481942 29.9523 0 29.3602 0H22.1701C20.9857 0 20.0229 0.963884 20.0229 2.14961Z" fill="#499ED7"/>
<path d="M43.3738 47.2342C43.2477 47.2342 43.1675 47.1653 43.1675 47.0276V40.2843C43.1675 40.1619 43.2515 40.093 43.3738 40.093H44.5734C44.6995 40.093 44.7683 40.1619 44.7683 40.2843V47.0276C44.7683 47.1653 44.6995 47.2342 44.5734 47.2342H43.3738Z" fill="white"/>
<path d="M47.3889 47.2342C47.2514 47.2342 47.1826 47.1653 47.1826 47.0276V40.7088C47.1826 40.5979 47.2246 40.5176 47.3354 40.4602C48.1339 40.116 49.1005 39.9209 50.0824 39.9209C51.9849 39.9209 53.2839 40.8045 53.2839 43.0114V47.0238C53.2839 47.1615 53.2151 47.2304 53.0891 47.2304H51.8894C51.7634 47.2304 51.6831 47.1615 51.6831 47.0238V43.0382C51.6831 41.7416 51.091 41.3552 50.0824 41.3552C49.6124 41.3552 49.1043 41.4241 48.7872 41.5082V47.0238C48.7872 47.1615 48.7184 47.2304 48.5809 47.2304H47.3889V47.2342Z" fill="white"/>
<path d="M57.4177 47.2341C57.2916 47.2341 57.2228 47.1805 57.1846 47.0696L54.7701 40.311C54.7166 40.1886 54.7854 40.0891 54.9229 40.0891H56.2066C56.3327 40.0891 56.4129 40.1427 56.4396 40.2421L58.1359 45.5817H58.1627L59.859 40.2421C59.8857 40.1465 59.9698 40.0891 60.0806 40.0891H61.3795C61.517 40.0891 61.5744 40.1847 61.5323 40.311L59.1025 47.0696C59.0605 47.1805 58.9803 47.2341 58.8695 47.2341H57.4177Z" fill="white"/>
<path d="M68.9098 44.1435C68.9098 44.2698 68.841 44.3386 68.7035 44.3386H64.5086V44.7249C64.5086 45.5664 65.0893 45.9948 65.9719 45.9948C66.8277 45.9948 67.4084 45.7041 67.9165 45.3599C68.012 45.291 68.1228 45.3063 68.1916 45.402L68.757 46.1593C68.841 46.2549 68.8258 46.3658 68.715 46.45C67.9853 47.0276 67.0875 47.4024 65.9146 47.4024C64.3558 47.4024 62.8926 46.5456 62.8926 44.7135V42.7551C62.8926 40.7279 64.4093 39.9285 65.9299 39.9285C67.4351 39.9285 68.9098 40.7279 68.9098 42.7551V44.1435ZM65.9299 41.3284C65.1161 41.3284 64.5086 41.7147 64.5086 42.736V43.0955H67.3511V42.736C67.3511 41.73 66.7054 41.3284 65.9299 41.3284Z" fill="white"/>
<path d="M73.4905 47.3986C72.5507 47.3986 71.5574 47.1347 70.6901 46.5036C70.5679 46.4347 70.5679 46.3391 70.6366 46.2282L71.16 45.3331C71.2288 45.2069 71.3129 45.1954 71.4351 45.2796C72.0579 45.7348 72.799 45.9834 73.5173 45.9834C74.2355 45.9834 74.801 45.708 74.801 45.184C74.801 44.6332 74.14 44.4802 73.5173 44.3693C72.4819 44.1742 70.7283 43.7496 70.7283 42.0781C70.7283 40.5481 72.1763 39.9132 73.6548 39.9132C74.4418 39.9132 75.2403 40.1083 76.0541 40.5481C76.1649 40.6017 76.1916 40.7126 76.1228 40.8235L75.5994 41.7071C75.5307 41.8027 75.4352 41.8295 75.3244 41.776C74.8124 41.5006 74.1935 41.3208 73.5708 41.3208C72.757 41.3208 72.3138 41.623 72.3138 42.0781C72.3138 42.6442 72.9366 42.7819 73.8458 42.9617C74.9767 43.1682 76.4132 43.5278 76.4132 45.1151C76.417 46.6527 75.1486 47.3986 73.4905 47.3986Z" fill="white"/>
<path d="M81.0512 45.9375C81.1773 45.9375 81.395 45.9222 81.6166 45.9107C81.7542 45.9107 81.8382 45.9796 81.8382 46.1058V47.1538C81.8382 47.2648 81.7809 47.3604 81.6434 47.3757C81.4103 47.391 81.12 47.4025 80.9136 47.4025C79.4771 47.4025 78.3616 46.6719 78.3616 44.8512V38.5477C78.3616 38.4253 78.4303 38.3527 78.5679 38.3527H79.6185C79.7293 38.3527 79.8095 38.4215 79.8248 38.5324L79.9509 40.093H81.4256C81.5517 40.093 81.6319 40.1619 81.6319 40.2881V41.3897C81.6319 41.5121 81.5479 41.5809 81.4256 41.5809H79.9624V44.7403C79.9624 45.4938 80.3482 45.9375 81.0512 45.9375Z" fill="white"/>
<path d="M83.8938 47.2342C83.7677 47.2342 83.6875 47.1653 83.6875 47.0276V40.2843C83.6875 40.1619 83.7715 40.093 83.8938 40.093H85.0934C85.2195 40.093 85.2883 40.1619 85.2883 40.2843V47.0276C85.2883 47.1653 85.2195 47.2342 85.0934 47.2342H83.8938Z" fill="white"/>
<path d="M94.4495 39.9246C96.1725 39.9246 97.4142 40.9306 97.4142 42.8622V47.0275C97.4142 47.1652 97.3454 47.2341 97.2193 47.2341H96.0197C95.8936 47.2341 95.8249 47.1652 95.8249 47.0275V42.8048C95.8249 41.9098 95.397 41.3705 94.4037 41.3705C93.949 41.3705 93.5479 41.4814 93.1887 41.7147C93.2995 42.0437 93.3683 42.4185 93.3683 42.8316V47.0237C93.3683 47.1614 93.2995 47.2303 93.162 47.2303H91.9738C91.8478 47.2303 91.7675 47.1614 91.7675 47.0237V42.801C91.7675 41.795 91.2976 41.3513 90.4036 41.3513C89.9337 41.3513 89.5746 41.4202 89.2995 41.5043V47.0237C89.2995 47.1614 89.2307 47.2303 89.0932 47.2303H87.905C87.7675 47.2303 87.6987 47.1614 87.6987 47.0237V40.7049C87.6987 40.594 87.7408 40.5099 87.863 40.4563C88.6233 40.1235 89.4905 39.917 90.3616 39.917C91.1754 39.917 91.8516 40.1503 92.3635 40.5519C93.055 40.1312 93.6472 39.9246 94.4495 39.9246Z" fill="white"/>
<path d="M105.571 44.1435C105.571 44.2698 105.502 44.3386 105.365 44.3386H101.17V44.7249C101.17 45.5664 101.75 45.9948 102.633 45.9948C103.489 45.9948 104.07 45.7041 104.578 45.3599C104.673 45.291 104.784 45.3063 104.853 45.402L105.418 46.1593C105.502 46.2549 105.487 46.3658 105.376 46.45C104.646 47.0276 103.749 47.4024 102.576 47.4024C101.017 47.4024 99.5537 46.5456 99.5537 44.7135V42.7551C99.5537 40.7279 101.07 39.9285 102.591 39.9285C104.096 39.9285 105.571 40.7279 105.571 42.7551V44.1435ZM102.591 41.3284C101.777 41.3284 101.17 41.7147 101.17 42.736V43.0955H104.012V42.736C104.012 41.73 103.363 41.3284 102.591 41.3284Z" fill="white"/>
<path d="M107.886 47.2342C107.749 47.2342 107.68 47.1653 107.68 47.0276V40.7088C107.68 40.5979 107.722 40.5176 107.833 40.4602C108.631 40.116 109.598 39.9209 110.58 39.9209C112.482 39.9209 113.781 40.8045 113.781 43.0114V47.0238C113.781 47.1615 113.712 47.2304 113.586 47.2304H112.387C112.261 47.2304 112.18 47.1615 112.18 47.0238V43.0382C112.18 41.7416 111.588 41.3552 110.58 41.3552C110.11 41.3552 109.602 41.4241 109.285 41.5082V47.0238C109.285 47.1615 109.216 47.2304 109.078 47.2304H107.886V47.2342Z" fill="white"/>
<path d="M118.786 45.9375C118.912 45.9375 119.13 45.9222 119.351 45.9107C119.489 45.9107 119.573 45.9796 119.573 46.1058V47.1538C119.573 47.2648 119.516 47.3604 119.378 47.3757C119.145 47.391 118.855 47.4025 118.649 47.4025C117.212 47.4025 116.096 46.6719 116.096 44.8512V38.5477C116.096 38.4253 116.165 38.3527 116.303 38.3527H117.35C117.46 38.3527 117.541 38.4215 117.556 38.5324L117.682 40.093H119.157C119.283 40.093 119.363 40.1619 119.363 40.2881V41.3897C119.363 41.5121 119.279 41.5809 119.157 41.5809H117.693V44.7403C117.697 45.4938 118.083 45.9375 118.786 45.9375Z" fill="white"/>
<path d="M124.28 47.3986C122.377 47.3986 121.135 46.3238 121.135 44.6141V42.7666C121.135 41.0301 122.377 39.9247 124.28 39.9247C126.182 39.9247 127.424 41.0301 127.424 42.7666V44.6141C127.424 46.3238 126.182 47.3986 124.28 47.3986ZM124.28 45.9643C125.258 45.9643 125.812 45.4976 125.812 44.6141V42.7666C125.812 41.8563 125.262 41.359 124.28 41.359C123.286 41.359 122.748 41.8563 122.748 42.7666V44.6141C122.748 45.4976 123.286 45.9643 124.28 45.9643Z" fill="white"/>
<path d="M132.074 47.3986C131.134 47.3986 130.14 47.1347 129.273 46.5036C129.151 46.4347 129.151 46.3391 129.22 46.2282L129.743 45.3331C129.812 45.2069 129.896 45.1954 130.018 45.2796C130.641 45.7348 131.386 45.9834 132.1 45.9834C132.819 45.9834 133.384 45.708 133.384 45.184C133.384 44.6332 132.723 44.4802 132.1 44.3693C131.065 44.1742 129.311 43.7496 129.311 42.0781C129.311 40.5481 130.759 39.9132 132.238 39.9132C133.025 39.9132 133.823 40.1083 134.637 40.5481C134.748 40.6017 134.775 40.7126 134.706 40.8235L134.182 41.7071C134.114 41.8027 134.018 41.8295 133.907 41.776C133.395 41.5006 132.777 41.3208 132.154 41.3208C131.34 41.3208 130.897 41.623 130.897 42.0781C130.897 42.6442 131.52 42.7819 132.429 42.9617C133.56 43.1682 134.996 43.5278 134.996 45.1151C135 46.6527 133.728 47.3986 132.074 47.3986Z" fill="white"/>
</svg>
